<svg width="171" height="169" viewBox="0 0 171 169" fill="none" xmlns="http://www.w3.org/2000/svg">
<path d="M108.354 16.6639L102.923 14.9869L101.223 20.4928L98.7593 19.7321L102.782 6.70444L105.246 7.46516L103.597 12.8031L109.029 14.4802L110.677 9.14221L113.141 9.90294L109.118 22.9306L106.654 22.1699L108.354 16.6639Z" fill="#282C2F"/>
<path d="M121.795 30.1947C121.059 29.6806 120.477 29.092 120.05 28.4291C119.623 27.7662 119.368 27.04 119.283 26.2507C119.21 25.4688 119.305 24.6381 119.569 23.7586C119.834 22.8791 120.297 21.9641 120.961 21.0136C121.616 20.0738 122.311 19.3281 123.046 18.7765C123.787 18.2142 124.538 17.8327 125.297 17.6321C126.067 17.4389 126.837 17.4281 127.606 17.5997C128.376 17.7714 129.129 18.1143 129.866 18.6285C130.603 19.1427 131.184 19.7312 131.611 20.3941C132.038 21.0571 132.293 21.7832 132.378 22.5725C132.462 23.3619 132.363 24.1979 132.081 25.0806C131.816 25.9601 131.356 26.8697 130.701 27.8096C130.037 28.7601 129.339 29.5111 128.604 30.0627C127.881 30.6218 127.134 30.9979 126.364 31.1911C125.594 31.3843 124.824 31.3951 124.055 31.2235C123.286 31.0518 122.532 30.7089 121.795 30.1947ZM123.103 28.3204C123.904 28.8793 124.726 29.0557 125.568 28.8496C126.422 28.6509 127.184 28.071 127.854 27.1098L129.061 25.3797C129.732 24.4185 130.013 23.5032 129.905 22.6339C129.808 21.772 129.359 21.0617 128.558 20.5028C127.757 19.9439 126.93 19.7638 126.077 19.9625C125.234 20.1686 124.478 20.7522 123.807 21.7134L122.6 23.4436C121.929 24.4047 121.642 25.3163 121.74 26.1781C121.848 27.0474 122.302 27.7615 123.103 28.3204Z" fill="#282C2F"/>
<path d="M143.965 31.2036L147.838 36.1842C148.182 36.6262 148.423 37.074 148.561 37.5274C148.707 37.9911 148.758 38.4383 148.713 38.8689C148.669 39.2994 148.52 39.7123 148.266 40.1075C148.031 40.5049 147.708 40.8636 147.297 41.1833C146.885 41.5031 146.492 41.7184 146.116 41.8292C145.759 41.9422 145.415 41.9782 145.086 41.937C144.765 41.9062 144.467 41.8085 144.19 41.644C143.922 41.4898 143.687 41.2934 143.485 41.0546L143.392 41.1266C143.576 41.363 143.726 41.6508 143.841 41.9901C143.964 42.3396 144.011 42.7074 143.981 43.0934C143.97 43.4817 143.865 43.8769 143.666 44.2789C143.478 44.673 143.152 45.0499 142.689 45.4096C142.258 45.7454 141.796 45.9892 141.303 46.1411C140.829 46.2952 140.358 46.3569 139.888 46.326C139.419 46.2951 138.97 46.1741 138.542 45.9627C138.124 45.7434 137.759 45.4333 137.447 45.0324L133.202 39.5738L143.965 31.2036ZM136.512 40.2661L138.718 43.1034C139.022 43.494 139.356 43.7213 139.719 43.7853C140.092 43.8413 140.469 43.7214 140.85 43.4256L141.374 43.0179C141.754 42.7221 141.963 42.3863 142.001 42.0105C142.039 41.6348 141.906 41.2516 141.602 40.8609L139.395 38.0237L136.512 40.2661ZM141.061 36.7286L143.015 39.242C143.303 39.6121 143.625 39.824 143.98 39.8777C144.345 39.9234 144.708 39.8063 145.068 39.5265L145.546 39.1548C145.906 38.875 146.103 38.5563 146.139 38.1988C146.184 37.8334 146.063 37.4656 145.775 37.0955L143.821 34.5821L141.061 36.7286Z" fill="#282C2F"/>
<path d="M156.868 50.6537L157.711 53.0905L152.911 54.7509L154.105 58.203C154.31 58.7937 154.394 59.357 154.359 59.8928C154.336 60.4243 154.204 60.9179 153.962 61.3737C153.72 61.8294 153.377 62.2307 152.932 62.5776C152.499 62.9202 151.981 63.1958 151.378 63.4044C150.763 63.6173 150.179 63.7227 149.627 63.7207C149.075 63.7187 148.563 63.6133 148.092 63.4045C147.62 63.1956 147.205 62.8915 146.846 62.4919C146.499 62.0881 146.224 61.5908 146.02 61.0001L143.983 55.1112L156.868 50.6537ZM148.06 60.0257C148.221 60.4934 148.472 60.82 148.812 61.0056C149.152 61.1912 149.574 61.1968 150.079 61.0222L150.928 60.7284C151.42 60.5581 151.742 60.295 151.895 59.9391C152.06 59.579 152.061 59.1651 151.899 58.6974L150.788 55.4853L146.948 56.8136L148.06 60.0257ZM160.827 62.0992L161.67 64.536L148.785 68.9935L147.942 66.5567L160.827 62.0992Z" fill="#282C2F"/>
<path d="M163.679 78.0782L163.669 80.5785L156.441 80.5496L153.61 80.2843L153.609 80.3429L156.163 81.701L163.644 86.6144L163.635 88.9193L150.001 88.8649L150.011 86.3645L157.238 86.3934L160.07 86.6587L160.07 86.6001L157.536 85.2421L150.035 80.3287L150.044 78.0237L163.679 78.0782ZM164.634 83.5124C164.637 82.692 164.809 82.035 165.149 81.5415C165.503 81.0481 165.999 80.6594 166.638 80.3755L167.558 79.9689L168.332 81.9645L166.454 82.6016C166.414 82.7056 166.381 82.8422 166.354 83.0114C166.341 83.1806 166.334 83.3499 166.333 83.5192C166.332 83.6885 166.338 83.8578 166.35 84.0271C166.376 84.1965 166.408 84.3334 166.446 84.4377L168.319 85.0898L167.53 87.0792L166.613 86.6653C165.976 86.3762 165.483 85.9836 165.134 85.4873C164.797 84.9911 164.63 84.3328 164.634 83.5124Z" fill="#282C2F"/>
<path d="M157.526 115.157L156.238 117.391L146.407 111.72L144.221 115.51L154.051 121.181L152.763 123.414L142.932 117.743L140.746 121.533L150.577 127.204L149.288 129.438L137.478 122.625L145.716 108.344L157.526 115.157Z" fill="#282C2F"/>
<path d="M124.44 135.257L127.52 137.207L131.221 134.081L129.798 130.732L131.797 129.043L137.104 142.408L134.656 144.475L122.396 136.984L124.44 135.257ZM134.382 141.638L134.457 141.575L132.167 136.171L129.422 138.49L134.382 141.638Z" fill="#282C2F"/>
<path d="M121.234 153.371L114.108 156.623L113.159 154.544L117.939 152.362L113.228 142.037L115.573 140.967L121.234 153.371Z" fill="#282C2F"/>
<path d="M90.8659 150.915L89.4015 150.875C89.1467 151.141 88.9163 151.467 88.7103 151.853C88.4914 152.237 88.3027 152.708 88.1442 153.264C87.9853 153.832 87.8563 154.5 87.7572 155.266C87.6451 156.031 87.5752 156.922 87.5474 157.937L87.4316 162.174L78.1175 161.92L78.4276 150.575L76.3187 150.517L76.4612 145.304L78.8825 145.37L78.8025 148.299L88.5071 148.564L88.5872 145.635L91.0085 145.701L90.8659 150.915ZM81.0051 150.645L80.7574 159.706L84.9947 159.821L85.0571 157.537C85.0827 156.6 85.1379 155.774 85.2225 155.06C85.2938 154.358 85.3888 153.742 85.5076 153.211C85.6263 152.68 85.7691 152.222 85.936 151.835C86.0895 151.462 86.2676 151.141 86.4704 150.873L86.4725 150.795L81.0051 150.645Z" fill="#282C2F"/>
<path d="M68.8268 149.115L67.3568 148.585C67.0523 148.738 66.7608 148.951 66.4823 149.225C66.1915 149.494 65.8982 149.865 65.6023 150.34C65.2898 150.823 64.9743 151.429 64.6558 152.158C64.3206 152.896 63.9609 153.797 63.5765 154.863L62.1648 158.777L53.5101 155.656L58.1361 142.83L60.5616 143.705L56.7111 154.38L60.5882 155.779L61.3371 153.702C61.7657 152.514 62.1775 151.507 62.5725 150.68C62.9676 149.854 63.349 149.161 63.7169 148.601C64.0804 148.054 64.437 147.622 64.7867 147.305C65.1319 147 65.4734 146.764 65.8112 146.595C66.2779 146.375 66.7399 146.265 67.1971 146.264C67.6544 146.263 68.177 146.368 68.7651 146.58L69.6287 146.892L68.8268 149.115Z" fill="#282C2F"/>
<path d="M49.2457 140.703L48.2948 139.985L45.9476 140.954C45.632 141.091 45.3544 141.167 45.1147 141.181C44.8647 141.188 44.5849 141.116 44.2755 140.964L44.2048 141.057C45.0099 141.763 45.4475 142.567 45.5175 143.468C45.5771 144.362 45.2733 145.25 44.6063 146.133C44.2218 146.643 43.7998 147.05 43.3404 147.356C42.8707 147.654 42.3908 147.847 41.9009 147.933C41.3927 148.023 40.8823 147.997 40.3697 147.854C39.857 147.712 39.3513 147.452 38.8525 147.076L33.942 143.368L42.1583 132.487L44.216 134.041L41.0495 138.234L42.7643 139.529L46.9071 137.835C47.5226 137.582 48.0204 137.485 48.4004 137.543C48.7701 137.594 49.1472 137.764 49.5317 138.055L50.623 138.879L49.2457 140.703ZM39.743 139.964L37.3534 143.129L40.0035 145.13C40.3984 145.428 40.7887 145.56 41.1742 145.525C41.5598 145.489 41.9017 145.274 42.1999 144.879L42.7414 144.162C43.0396 143.767 43.1568 143.374 43.0929 142.984C43.0213 142.603 42.788 142.264 42.393 141.966L39.743 139.964Z" fill="#282C2F"/>
<path d="M17.2504 123.543L13.2101 115.561L15.2492 114.528L18.125 120.21L20.7916 118.86L19.1419 115.601C18.8596 115.044 18.6997 114.497 18.6621 113.961C18.6129 113.432 18.6774 112.925 18.8556 112.44C19.0221 111.962 19.2966 111.524 19.679 111.126C20.0498 110.734 20.514 110.397 21.0718 110.114C21.6178 109.838 22.1644 109.663 22.7115 109.591C23.247 109.524 23.7568 109.565 24.2409 109.714C24.725 109.863 25.1718 110.112 25.5812 110.459C25.9789 110.812 26.319 111.268 26.6013 111.826L29.4154 117.385L17.2504 123.543ZM24.7117 113.067C24.4882 112.625 24.1956 112.335 23.8338 112.197C23.472 112.059 23.053 112.111 22.5766 112.352L21.9492 112.67C21.4844 112.905 21.2006 113.209 21.0976 113.582C20.9829 113.961 21.0374 114.372 21.2609 114.813L22.7958 117.846L26.2466 116.099L24.7117 113.067Z" fill="#282C2F"/>
<path d="M8.53347 102.269L8.11548 99.804L15.2413 98.5957L18.0763 98.3726L18.0665 98.3148L15.3182 97.4137L7.10643 93.853L6.72109 91.5804L20.1638 89.3011L20.5818 91.7662L13.456 92.9745L10.621 93.1976L10.6308 93.2554L13.3598 94.1597L21.5908 97.7172L21.9762 99.9898L8.53347 102.269Z" fill="#282C2F"/>
<path d="M20.7638 76.0644C20.5135 78.0804 19.6062 79.6278 18.0419 80.7064L16.589 78.7742C17.1185 78.42 17.551 78.0013 17.8866 77.5181C18.2093 77.0332 18.4123 76.4548 18.4958 75.7828C18.6001 74.9428 18.5244 74.2838 18.2688 73.8059C18.0132 73.328 17.5882 73.0522 16.9937 72.9784L16.8192 72.9567C16.2377 72.8845 15.7888 73.0125 15.4724 73.3406C15.1448 73.6542 14.9336 74.1923 14.839 74.9548L14.5574 77.2228L12.3087 76.9436L12.5759 74.7919C12.7476 73.4091 12.2519 72.6455 11.0888 72.501L10.9337 72.4818C10.4168 72.4176 9.99934 72.556 9.68142 72.8971C9.35218 73.2237 9.14102 73.7617 9.04795 74.5113C8.97093 75.1316 9.01663 75.7147 9.18507 76.2605C9.3551 76.7934 9.62603 77.2535 9.99786 77.6408L8.24488 79.0766C7.66611 78.4536 7.2496 77.7392 6.99535 76.9334C6.72977 76.1131 6.65796 75.2118 6.77992 74.2297C6.97408 72.6659 7.46092 71.4929 8.24044 70.7105C9.00704 69.9264 9.95897 69.605 11.0962 69.7462C12.0138 69.8602 12.6852 70.2125 13.1105 70.8034C13.5245 71.3797 13.7277 72.0676 13.7203 72.8672L13.8366 72.8816C13.9106 72.4971 14.0411 72.1328 14.2282 71.7886C14.4024 71.4428 14.6356 71.1502 14.9277 70.9109C15.2086 70.6571 15.5468 70.4694 15.9424 70.348C16.3252 70.2249 16.7621 70.1939 17.2531 70.2548C17.8735 70.3319 18.4268 70.5252 18.9133 70.835C19.3868 71.1431 19.7829 71.5466 20.1015 72.0454C20.4072 72.5427 20.6225 73.1337 20.7474 73.8184C20.8594 74.5016 20.8649 75.2503 20.7638 76.0644Z" fill="#282C2F"/>
<path d="M21.3702 52.6476L19.0781 57.8494L24.3514 60.1729L23.3117 62.5325L10.8347 57.0347L11.8743 54.6752L16.9867 56.9278L19.2787 51.7261L14.1664 49.4734L15.2061 47.1139L27.6831 52.6116L26.6434 54.9712L21.3702 52.6476Z" fill="#282C2F"/>
<path d="M32.7317 44.7411L22.361 35.8896L28.1944 29.055L29.9328 30.5387L25.7733 35.4121L28.2843 37.5552L31.9618 33.2464L33.7002 34.7302L30.0226 39.0389L32.6673 41.2962L36.8268 36.4228L38.5651 37.9066L32.7317 44.7411Z" fill="#282C2F"/>
<path d="M49.6426 29.3157C48.8919 29.8096 48.1332 30.1372 47.3665 30.2987C46.6035 30.4421 45.8434 30.4121 45.0861 30.2089C44.3398 29.9984 43.6162 29.6093 42.9153 29.0416C42.2074 28.4629 41.5384 27.6949 40.9086 26.7375C40.2788 25.7802 39.8348 24.8564 39.5766 23.9663C39.3112 23.0653 39.2261 22.2251 39.3211 21.4455C39.4199 20.6479 39.6826 19.9217 40.1092 19.2669C40.5467 18.605 41.1408 18.0272 41.8915 17.5333C42.9141 16.8606 43.9059 16.5199 44.8667 16.5113C45.8275 16.5028 46.799 16.8067 47.7813 17.4231L46.5813 19.6154C46.0818 19.2114 45.5468 18.9788 44.9765 18.9175C44.3991 18.8453 43.7894 19.0204 43.1475 19.4427C42.3424 19.9723 41.8795 20.6665 41.7586 21.5254C41.6487 22.3771 41.9158 23.2926 42.5599 24.2717L43.7408 26.0668C44.3921 27.0569 45.127 27.6646 45.9455 27.8899C46.7678 28.0972 47.5814 27.936 48.3865 27.4064C49.0284 26.9841 49.4361 26.4665 49.6096 25.8536C49.794 25.2335 49.8105 24.6069 49.659 23.9739L52.0815 23.8533C52.2264 24.9739 52.1135 25.9989 51.743 26.9285C51.3654 27.8472 50.6652 28.643 49.6426 29.3157Z" fill="#282C2F"/>
<path d="M69.651 20.2964L67.6074 17.2782L62.9658 18.6652L62.932 22.3043L60.424 23.0537L60.8998 8.6812L63.9692 7.76398L72.2151 19.5302L69.651 20.2964ZM63.0869 10.4741L62.9933 10.5021L62.9327 16.3713L66.3765 15.3422L63.0869 10.4741Z" fill="#282C2F"/>
<circle cx="85.4606" cy="13.5791" r="4.88344" fill="#AD96F3"/>
</svg>
