<svg width="461" height="416" viewBox="0 0 461 416" fill="none" xmlns="http://www.w3.org/2000/svg">
<g filter="url(#filter0_d_81_317)">
<path d="M32 19.0001C32 9.61128 39.6112 2.00012 49 2.00012H412C421.389 2.00012 429 9.61128 429 19.0001V337C429 346.389 421.389 354 412 354H49C39.6112 354 32 346.389 32 337V19.0001Z" fill="white"/>
</g>
<path d="M144.179 46.0401H154.979V60.0001H152.339V48.3801H146.819V60.0001H144.179V46.0401ZM158.101 49.5601H160.661V51.2801H160.741C160.928 50.6801 161.281 50.2068 161.801 49.8601C162.321 49.5001 162.928 49.3201 163.621 49.3201C164.954 49.3201 165.968 49.7935 166.661 50.7401C167.368 51.6735 167.721 53.0135 167.721 54.7601C167.721 56.5201 167.368 57.8735 166.661 58.8201C165.968 59.7668 164.954 60.2401 163.621 60.2401C162.928 60.2401 162.321 60.0601 161.801 59.7001C161.294 59.3401 160.941 58.8601 160.741 58.2601H160.661V64.0001H158.101V49.5601ZM162.801 58.1201C163.468 58.1201 164.008 57.9001 164.421 57.4601C164.834 57.0201 165.041 56.4268 165.041 55.6801V53.8801C165.041 53.1335 164.834 52.5401 164.421 52.1001C164.008 51.6468 163.468 51.4201 162.801 51.4201C162.188 51.4201 161.674 51.5735 161.261 51.8801C160.861 52.1868 160.661 52.5935 160.661 53.1001V56.4201C160.661 56.9668 160.861 57.3868 161.261 57.6801C161.674 57.9735 162.188 58.1201 162.801 58.1201ZM170.093 49.5601H172.593V54.2201L172.373 56.6601H172.453L173.673 54.4401L176.933 49.5601H179.233V60.0001H176.733V55.3401L176.953 52.8801H176.873L175.653 55.1201L172.393 60.0001H170.093V49.5601ZM182.203 49.5601H184.763V51.2801H184.843C185.029 50.6801 185.383 50.2068 185.903 49.8601C186.423 49.5001 187.029 49.3201 187.723 49.3201C189.056 49.3201 190.069 49.7935 190.763 50.7401C191.469 51.6735 191.823 53.0135 191.823 54.7601C191.823 56.5201 191.469 57.8735 190.763 58.8201C190.069 59.7668 189.056 60.2401 187.723 60.2401C187.029 60.2401 186.423 60.0601 185.903 59.7001C185.396 59.3401 185.043 58.8601 184.843 58.2601H184.763V64.0001H182.203V49.5601ZM186.903 58.1201C187.569 58.1201 188.109 57.9001 188.523 57.4601C188.936 57.0201 189.143 56.4268 189.143 55.6801V53.8801C189.143 53.1335 188.936 52.5401 188.523 52.1001C188.109 51.6468 187.569 51.4201 186.903 51.4201C186.289 51.4201 185.776 51.5735 185.363 51.8801C184.963 52.1868 184.763 52.5935 184.763 53.1001V56.4201C184.763 56.9668 184.963 57.3868 185.363 57.6801C185.776 57.9735 186.289 58.1201 186.903 58.1201ZM198.335 60.2401C197.588 60.2401 196.915 60.1135 196.315 59.8601C195.728 59.6068 195.222 59.2401 194.795 58.7601C194.382 58.2801 194.062 57.7068 193.835 57.0401C193.608 56.3601 193.495 55.6001 193.495 54.7601C193.495 53.9201 193.608 53.1668 193.835 52.5001C194.062 51.8335 194.382 51.2668 194.795 50.8001C195.222 50.3201 195.728 49.9535 196.315 49.7001C196.915 49.4468 197.588 49.3201 198.335 49.3201C199.082 49.3201 199.755 49.4468 200.355 49.7001C200.955 49.9535 201.462 50.3201 201.875 50.8001C202.302 51.2668 202.628 51.8335 202.855 52.5001C203.082 53.1668 203.195 53.9201 203.195 54.7601C203.195 55.6001 203.082 56.3601 202.855 57.0401C202.628 57.7068 202.302 58.2801 201.875 58.7601C201.462 59.2401 200.955 59.6068 200.355 59.8601C199.755 60.1135 199.082 60.2401 198.335 60.2401ZM198.335 58.1801C199.015 58.1801 199.548 57.9735 199.935 57.5601C200.322 57.1468 200.515 56.5401 200.515 55.7401V53.8001C200.515 53.0135 200.322 52.4135 199.935 52.0001C199.548 51.5868 199.015 51.3801 198.335 51.3801C197.668 51.3801 197.142 51.5868 196.755 52.0001C196.368 52.4135 196.175 53.0135 196.175 53.8001V55.7401C196.175 56.5401 196.368 57.1468 196.755 57.5601C197.142 57.9735 197.668 58.1801 198.335 58.1801ZM209.584 60.2401C208.811 60.2401 208.124 60.1135 207.524 59.8601C206.924 59.6068 206.418 59.2401 206.004 58.7601C205.604 58.2801 205.298 57.7068 205.084 57.0401C204.871 56.3601 204.764 55.6001 204.764 54.7601C204.764 53.9201 204.871 53.1668 205.084 52.5001C205.298 51.8335 205.604 51.2668 206.004 50.8001C206.418 50.3201 206.924 49.9535 207.524 49.7001C208.124 49.4468 208.811 49.3201 209.584 49.3201C210.638 49.3201 211.504 49.5535 212.184 50.0201C212.878 50.4868 213.378 51.1335 213.684 51.9601L211.584 52.9001C211.464 52.4601 211.238 52.1001 210.904 51.8201C210.584 51.5268 210.144 51.3801 209.584 51.3801C208.864 51.3801 208.324 51.6068 207.964 52.0601C207.618 52.5135 207.444 53.1068 207.444 53.8401V55.7401C207.444 56.4735 207.618 57.0668 207.964 57.5201C208.324 57.9601 208.864 58.1801 209.584 58.1801C210.198 58.1801 210.671 58.0268 211.004 57.7201C211.338 57.4001 211.598 57.0068 211.784 56.5401L213.744 57.4801C213.398 58.4001 212.871 59.0935 212.164 59.5601C211.458 60.0135 210.598 60.2401 209.584 60.2401ZM217.955 51.6001H214.775V49.5601H223.695V51.6001H220.515V60.0001H217.955V51.6001ZM230.308 49.5601H232.868V53.6601H234.548L236.128 50.9201C236.421 50.4135 236.721 50.0601 237.028 49.8601C237.335 49.6601 237.741 49.5601 238.248 49.5601H239.388V51.6001H238.268L237.168 53.5201C236.981 53.8668 236.801 54.1135 236.628 54.2601C236.455 54.3935 236.248 54.4935 236.008 54.5601V54.6601C236.248 54.7135 236.461 54.8068 236.648 54.9401C236.848 55.0735 237.041 55.3068 237.228 55.6401L238.528 57.9601H239.628V60.0001H238.328C237.821 60.0001 237.401 59.8935 237.068 59.6801C236.748 59.4668 236.441 59.1001 236.148 58.5801L234.548 55.6801H232.868V60.0001H230.308V49.5601ZM240.67 57.9601H242.03C242.163 57.7601 242.283 57.5201 242.39 57.2401C242.51 56.9601 242.61 56.6201 242.69 56.2201C242.77 55.8068 242.83 55.3201 242.87 54.7601C242.923 54.1868 242.95 53.5201 242.95 52.7601V49.5601H250.89V60.0001H248.33V51.6001H245.39V52.8801C245.39 53.8268 245.357 54.6535 245.29 55.3601C245.223 56.0535 245.123 56.6535 244.99 57.1601C244.87 57.6668 244.717 58.0935 244.53 58.4401C244.357 58.7735 244.163 59.0468 243.95 59.2601C243.643 59.5668 243.297 59.7801 242.91 59.9001C242.523 60.0201 242.05 60.0801 241.49 60.0801H240.67V57.9601ZM253.824 49.5601H256.324V54.2201L256.104 56.6601H256.184L257.404 54.4401L260.664 49.5601H262.964V60.0001H260.464V55.3401L260.684 52.8801H260.604L259.384 55.1201L256.124 60.0001H253.824V49.5601ZM270.153 60.2401C269.38 60.2401 268.686 60.1135 268.073 59.8601C267.473 59.5935 266.96 59.2268 266.533 58.7601C266.12 58.2801 265.8 57.7068 265.573 57.0401C265.346 56.3601 265.233 55.6001 265.233 54.7601C265.233 53.9335 265.34 53.1868 265.553 52.5201C265.78 51.8535 266.1 51.2868 266.513 50.8201C266.926 50.3401 267.433 49.9735 268.033 49.7201C268.633 49.4535 269.313 49.3201 270.073 49.3201C270.886 49.3201 271.593 49.4601 272.193 49.7401C272.793 50.0201 273.286 50.4001 273.673 50.8801C274.06 51.3601 274.346 51.9201 274.533 52.5601C274.733 53.1868 274.833 53.8601 274.833 54.5801V55.4201H267.893V55.6801C267.893 56.4401 268.106 57.0535 268.533 57.5201C268.96 57.9735 269.593 58.2001 270.433 58.2001C271.073 58.2001 271.593 58.0668 271.993 57.8001C272.406 57.5335 272.773 57.1935 273.093 56.7801L274.473 58.3201C274.046 58.9201 273.46 59.3935 272.713 59.7401C271.98 60.0735 271.126 60.2401 270.153 60.2401ZM270.113 51.2401C269.433 51.2401 268.893 51.4668 268.493 51.9201C268.093 52.3735 267.893 52.9601 267.893 53.6801V53.8401H272.173V53.6601C272.173 52.9401 271.993 52.3601 271.633 51.9201C271.286 51.4668 270.78 51.2401 270.113 51.2401ZM277.085 49.5601H279.645V53.6601H283.665V49.5601H286.225V60.0001H283.665V55.7001H279.645V60.0001H277.085V49.5601ZM291.295 51.6001H288.115V49.5601H297.035V51.6001H293.855V60.0001H291.295V51.6001ZM302.925 60.2401C302.178 60.2401 301.505 60.1135 300.905 59.8601C300.318 59.6068 299.811 59.2401 299.385 58.7601C298.971 58.2801 298.651 57.7068 298.425 57.0401C298.198 56.3601 298.085 55.6001 298.085 54.7601C298.085 53.9201 298.198 53.1668 298.425 52.5001C298.651 51.8335 298.971 51.2668 299.385 50.8001C299.811 50.3201 300.318 49.9535 300.905 49.7001C301.505 49.4468 302.178 49.3201 302.925 49.3201C303.671 49.3201 304.345 49.4468 304.945 49.7001C305.545 49.9535 306.051 50.3201 306.465 50.8001C306.891 51.2668 307.218 51.8335 307.445 52.5001C307.671 53.1668 307.785 53.9201 307.785 54.7601C307.785 55.6001 307.671 56.3601 307.445 57.0401C307.218 57.7068 306.891 58.2801 306.465 58.7601C306.051 59.2401 305.545 59.6068 304.945 59.8601C304.345 60.1135 303.671 60.2401 302.925 60.2401ZM302.925 58.1801C303.605 58.1801 304.138 57.9735 304.525 57.5601C304.911 57.1468 305.105 56.5401 305.105 55.7401V53.8001C305.105 53.0135 304.911 52.4135 304.525 52.0001C304.138 51.5868 303.605 51.3801 302.925 51.3801C302.258 51.3801 301.731 51.5868 301.345 52.0001C300.958 52.4135 300.765 53.0135 300.765 53.8001V55.7401C300.765 56.5401 300.958 57.1468 301.345 57.5601C301.731 57.9735 302.258 58.1801 302.925 58.1801ZM310.054 49.5601H315.794C316.728 49.5601 317.441 49.8001 317.934 50.2801C318.428 50.7468 318.674 51.3801 318.674 52.1801C318.674 53.5001 317.954 54.2601 316.514 54.4601V54.5401C317.368 54.6201 318.008 54.8668 318.434 55.2801C318.861 55.6935 319.074 56.2468 319.074 56.9401C319.074 57.8468 318.794 58.5868 318.234 59.1601C317.674 59.7201 316.894 60.0001 315.894 60.0001H310.054V49.5601ZM315.374 58.1401C315.721 58.1401 315.988 58.0535 316.174 57.8801C316.361 57.6935 316.454 57.4335 316.454 57.1001V56.5401C316.454 56.2068 316.361 55.9535 316.174 55.7801C315.988 55.5935 315.721 55.5001 315.374 55.5001H312.554V58.1401H315.374ZM315.074 53.8801C315.381 53.8801 315.621 53.7935 315.794 53.6201C315.981 53.4468 316.074 53.2068 316.074 52.9001V52.4001C316.074 52.0935 315.981 51.8535 315.794 51.6801C315.621 51.5068 315.381 51.4201 315.074 51.4201H312.554V53.8801H315.074Z" fill="#282C2F"/>
<path d="M336.329 196.5C338.909 196.5 341.01 194.408 340.901 191.831C340.355 178.914 337.545 166.18 332.589 154.214C327.036 140.807 318.896 128.626 308.635 118.365C298.374 108.104 286.193 99.9646 272.787 94.4114C259.38 88.8583 245.011 86.0001 230.5 86.0001C215.989 86.0001 201.62 88.8583 188.213 94.4114C174.807 99.9646 162.626 108.104 152.365 118.365C142.104 128.626 133.964 140.807 128.411 154.214C123.455 166.18 120.645 178.914 120.099 191.831C119.99 194.408 122.091 196.5 124.671 196.5V196.5C127.25 196.5 129.33 194.408 129.449 191.831C129.989 180.141 132.554 168.622 137.041 157.788C142.125 145.515 149.576 134.363 158.97 124.97C168.363 115.576 179.515 108.125 191.788 103.041C204.061 97.9577 217.216 95.3411 230.5 95.3411C243.784 95.3411 256.939 97.9577 269.212 103.041C281.485 108.125 292.637 115.576 302.03 124.97C311.424 134.363 318.875 145.515 323.959 157.788C328.446 168.622 331.011 180.141 331.551 191.831C331.67 194.408 333.75 196.5 336.329 196.5V196.5Z" fill="#E7E7E7"/>
<path d="M319.583 139.368C321.754 137.975 322.394 135.08 320.911 132.969C308.119 114.764 290.102 100.813 269.193 92.9961C246.823 84.6335 222.346 83.7433 199.428 90.4588C176.509 97.1743 156.384 111.134 142.065 130.247C128.681 148.112 121.043 169.581 120.099 191.811C119.99 194.388 122.091 196.481 124.671 196.481V196.481C127.25 196.482 129.33 194.389 129.45 191.813C130.387 171.603 137.367 152.097 149.54 135.848C162.649 118.35 181.074 105.571 202.054 99.4229C223.035 93.2751 245.443 94.09 265.922 101.746C284.94 108.855 301.344 121.509 313.04 138.017C314.531 140.122 317.412 140.76 319.583 139.368V139.368Z" fill="url(#paint0_linear_81_317)"/>
<circle cx="317.5" cy="136.5" r="12.5" fill="#5FC7FC"/>
<path d="M176.024 184.858V178.602H170.278V174.59H176.024V168.334H180.376V174.59H186.122V178.602H180.376V184.858H176.024ZM198.587 187.408C197.181 187.408 195.923 187.238 194.813 186.898C193.725 186.535 192.807 186.048 192.059 185.436C191.311 184.824 190.733 184.099 190.325 183.26C189.939 182.421 189.747 181.503 189.747 180.506C189.747 178.987 190.166 177.752 191.005 176.8C191.843 175.825 192.977 175.145 194.405 174.76V174.488C193.249 174.057 192.297 173.4 191.549 172.516C190.823 171.632 190.461 170.499 190.461 169.116C190.461 168.209 190.631 167.371 190.971 166.6C191.333 165.829 191.855 165.172 192.535 164.628C193.237 164.061 194.087 163.631 195.085 163.336C196.105 163.019 197.272 162.86 198.587 162.86C199.901 162.86 201.057 163.019 202.055 163.336C203.075 163.631 203.925 164.061 204.605 164.628C205.307 165.172 205.829 165.829 206.169 166.6C206.531 167.371 206.713 168.209 206.713 169.116C206.713 170.499 206.339 171.632 205.591 172.516C204.865 173.4 203.925 174.057 202.769 174.488V174.76C204.197 175.145 205.33 175.825 206.169 176.8C207.007 177.752 207.427 178.987 207.427 180.506C207.427 181.503 207.223 182.421 206.815 183.26C206.429 184.099 205.863 184.824 205.115 185.436C204.367 186.048 203.437 186.535 202.327 186.898C201.239 187.238 199.992 187.408 198.587 187.408ZM198.587 183.498C199.72 183.498 200.581 183.237 201.171 182.716C201.783 182.172 202.089 181.424 202.089 180.472V179.792C202.089 178.84 201.783 178.103 201.171 177.582C200.581 177.038 199.72 176.766 198.587 176.766C197.453 176.766 196.581 177.038 195.969 177.582C195.379 178.103 195.085 178.84 195.085 179.792V180.472C195.085 181.424 195.379 182.172 195.969 182.716C196.581 183.237 197.453 183.498 198.587 183.498ZM198.587 173.026C199.675 173.026 200.502 172.777 201.069 172.278C201.635 171.757 201.919 171.054 201.919 170.17V169.626C201.919 168.742 201.635 168.051 201.069 167.552C200.502 167.031 199.675 166.77 198.587 166.77C197.499 166.77 196.671 167.031 196.105 167.552C195.538 168.051 195.255 168.742 195.255 169.626V170.17C195.255 171.054 195.538 171.757 196.105 172.278C196.671 172.777 197.499 173.026 198.587 173.026ZM211.969 187V182.886H218.361V166.974H218.055L213.227 173.298L209.963 170.748L215.641 163.268H223.461V182.886H228.493V187H211.969ZM234.43 187.374C233.41 187.374 232.651 187.125 232.152 186.626C231.676 186.105 231.438 185.447 231.438 184.654V183.974C231.438 183.181 231.676 182.535 232.152 182.036C232.651 181.515 233.41 181.254 234.43 181.254C235.45 181.254 236.198 181.515 236.674 182.036C237.173 182.535 237.422 183.181 237.422 183.974V184.654C237.422 185.447 237.173 186.105 236.674 186.626C236.198 187.125 235.45 187.374 234.43 187.374ZM250.022 187.408C248.616 187.408 247.358 187.193 246.248 186.762C245.137 186.309 244.196 185.674 243.426 184.858C242.678 184.019 242.1 183.022 241.692 181.866C241.306 180.71 241.114 179.418 241.114 177.99C241.114 176.335 241.363 174.771 241.862 173.298C242.383 171.802 243.04 170.431 243.834 169.184C244.65 167.915 245.556 166.781 246.554 165.784C247.574 164.787 248.594 163.948 249.614 163.268H256.652C255.201 164.311 253.898 165.308 252.742 166.26C251.586 167.189 250.577 168.13 249.716 169.082C248.877 170.034 248.174 171.009 247.608 172.006C247.064 172.981 246.678 174.035 246.452 175.168L246.758 175.27C246.962 174.817 247.2 174.375 247.472 173.944C247.766 173.513 248.118 173.139 248.526 172.822C248.956 172.482 249.455 172.21 250.022 172.006C250.588 171.802 251.246 171.7 251.994 171.7C252.968 171.7 253.875 171.881 254.714 172.244C255.575 172.584 256.312 173.071 256.924 173.706C257.558 174.341 258.046 175.123 258.386 176.052C258.748 176.959 258.93 177.967 258.93 179.078C258.93 180.302 258.714 181.424 258.284 182.444C257.876 183.464 257.275 184.348 256.482 185.096C255.711 185.821 254.782 186.388 253.694 186.796C252.606 187.204 251.382 187.408 250.022 187.408ZM250.022 183.43C251.155 183.43 252.039 183.124 252.674 182.512C253.308 181.877 253.626 180.982 253.626 179.826V179.214C253.626 178.058 253.308 177.174 252.674 176.562C252.039 175.927 251.155 175.61 250.022 175.61C248.888 175.61 248.004 175.927 247.37 176.562C246.735 177.174 246.418 178.058 246.418 179.214V179.826C246.418 180.982 246.735 181.877 247.37 182.512C248.004 183.124 248.888 183.43 250.022 183.43ZM266.158 187L282.614 163.268H287.102L270.646 187H266.158ZM267.892 176.324C265.898 176.324 264.379 175.757 263.336 174.624C262.294 173.491 261.772 171.813 261.772 169.592C261.772 167.371 262.294 165.693 263.336 164.56C264.379 163.427 265.898 162.86 267.892 162.86C269.887 162.86 271.406 163.427 272.448 164.56C273.491 165.693 274.012 167.371 274.012 169.592C274.012 171.813 273.491 173.491 272.448 174.624C271.406 175.757 269.887 176.324 267.892 176.324ZM267.892 173.4C268.482 173.4 268.924 173.173 269.218 172.72C269.513 172.244 269.66 171.496 269.66 170.476V168.708C269.66 167.688 269.513 166.951 269.218 166.498C268.924 166.022 268.482 165.784 267.892 165.784C267.303 165.784 266.861 166.022 266.566 166.498C266.272 166.951 266.124 167.688 266.124 168.708V170.476C266.124 171.496 266.272 172.244 266.566 172.72C266.861 173.173 267.303 173.4 267.892 173.4ZM285.368 187.408C283.374 187.408 281.855 186.841 280.812 185.708C279.77 184.575 279.248 182.897 279.248 180.676C279.248 178.455 279.77 176.777 280.812 175.644C281.855 174.511 283.374 173.944 285.368 173.944C287.363 173.944 288.882 174.511 289.924 175.644C290.967 176.777 291.488 178.455 291.488 180.676C291.488 182.897 290.967 184.575 289.924 185.708C288.882 186.841 287.363 187.408 285.368 187.408ZM285.368 184.484C285.958 184.484 286.4 184.257 286.694 183.804C286.989 183.328 287.136 182.58 287.136 181.56V179.792C287.136 178.772 286.989 178.035 286.694 177.582C286.4 177.106 285.958 176.868 285.368 176.868C284.779 176.868 284.337 177.106 284.042 177.582C283.748 178.035 283.6 178.772 283.6 179.792V181.56C283.6 182.58 283.748 183.328 284.042 183.804C284.337 184.257 284.779 184.484 285.368 184.484Z" fill="#282C2F"/>
<path d="M171.915 213.192C171.072 213.192 170.4 213.048 169.899 212.76C169.397 212.472 168.987 212.061 168.667 211.528L169.627 210.76C169.84 211.165 170.133 211.485 170.507 211.72C170.891 211.944 171.36 212.056 171.915 212.056C172.587 212.056 173.083 211.933 173.403 211.688C173.733 211.443 173.899 211.128 173.899 210.744V210.552C173.899 210.136 173.755 209.821 173.467 209.608C173.189 209.384 172.795 209.272 172.283 209.272H170.523V208.2H172.123C172.635 208.2 173.029 208.099 173.307 207.896C173.584 207.693 173.723 207.405 173.723 207.032V206.84C173.723 206.488 173.579 206.211 173.291 206.008C173.013 205.795 172.544 205.688 171.883 205.688C171.339 205.688 170.891 205.8 170.539 206.024C170.187 206.237 169.904 206.531 169.691 206.904L168.843 206.184C169.099 205.704 169.472 205.315 169.963 205.016C170.464 204.707 171.125 204.552 171.947 204.552C173.024 204.552 173.819 204.749 174.331 205.144C174.843 205.539 175.099 206.083 175.099 206.776C175.099 207.288 174.96 207.693 174.683 207.992C174.416 208.291 174.027 208.499 173.515 208.616V208.68C174.101 208.765 174.539 208.979 174.827 209.32C175.125 209.651 175.275 210.077 175.275 210.6C175.275 211.4 174.971 212.035 174.363 212.504C173.765 212.963 172.949 213.192 171.915 213.192ZM183.516 213C183.036 213 182.69 212.872 182.476 212.616C182.274 212.36 182.146 212.04 182.092 211.656H182.012C181.831 212.168 181.532 212.552 181.116 212.808C180.7 213.064 180.204 213.192 179.628 213.192C178.754 213.192 178.071 212.968 177.58 212.52C177.1 212.072 176.86 211.464 176.86 210.696C176.86 209.917 177.143 209.32 177.708 208.904C178.284 208.488 179.175 208.28 180.38 208.28H182.012V207.464C182.012 206.877 181.852 206.429 181.532 206.12C181.212 205.811 180.722 205.656 180.06 205.656C179.559 205.656 179.138 205.768 178.796 205.992C178.466 206.216 178.188 206.515 177.964 206.888L177.196 206.168C177.42 205.72 177.778 205.341 178.268 205.032C178.759 204.712 179.378 204.552 180.124 204.552C181.127 204.552 181.906 204.797 182.46 205.288C183.015 205.779 183.292 206.461 183.292 207.336V211.88H184.236V213H183.516ZM179.836 212.104C180.156 212.104 180.45 212.067 180.716 211.992C180.983 211.917 181.212 211.811 181.404 211.672C181.596 211.533 181.746 211.373 181.852 211.192C181.959 211.011 182.012 210.813 182.012 210.6V209.24H180.316C179.58 209.24 179.042 209.347 178.7 209.56C178.37 209.773 178.204 210.083 178.204 210.488V210.824C178.204 211.229 178.348 211.544 178.636 211.768C178.935 211.992 179.335 212.104 179.836 212.104ZM193.3 213.192C192.724 213.192 192.202 213.096 191.732 212.904C191.274 212.701 190.879 212.419 190.548 212.056C190.228 211.683 189.983 211.229 189.812 210.696C189.642 210.163 189.556 209.565 189.556 208.904C189.556 208.072 189.679 207.293 189.924 206.568C190.17 205.832 190.484 205.165 190.868 204.568C191.263 203.96 191.695 203.427 192.164 202.968C192.634 202.499 193.092 202.12 193.54 201.832H195.268C194.671 202.269 194.138 202.696 193.668 203.112C193.199 203.528 192.788 203.965 192.436 204.424C192.084 204.872 191.786 205.357 191.54 205.88C191.295 206.392 191.098 206.973 190.948 207.624L191.028 207.656C191.295 207.197 191.636 206.819 192.052 206.52C192.479 206.211 193.034 206.056 193.716 206.056C194.196 206.056 194.639 206.136 195.044 206.296C195.45 206.456 195.796 206.685 196.084 206.984C196.372 207.283 196.596 207.645 196.756 208.072C196.927 208.499 197.012 208.973 197.012 209.496C197.012 210.04 196.922 210.541 196.74 211C196.57 211.448 196.319 211.837 195.988 212.168C195.668 212.488 195.279 212.739 194.82 212.92C194.362 213.101 193.855 213.192 193.3 213.192ZM193.284 212.024C194.02 212.024 194.591 211.821 194.996 211.416C195.412 211.011 195.62 210.429 195.62 209.672V209.544C195.62 208.787 195.412 208.205 194.996 207.8C194.591 207.395 194.02 207.192 193.284 207.192C192.548 207.192 191.972 207.395 191.556 207.8C191.151 208.205 190.948 208.787 190.948 209.544V209.672C190.948 210.429 191.151 211.011 191.556 211.416C191.972 211.821 192.548 212.024 193.284 212.024ZM203.219 204.744H204.899L207.411 209.032H207.475L209.971 204.744H211.635V213H210.387V206.28H210.307L209.843 207.176L207.427 211.272L205.011 207.176L204.547 206.28H204.467V213H203.219V204.744ZM217.464 213.192C216.899 213.192 216.387 213.091 215.928 212.888C215.48 212.685 215.091 212.397 214.76 212.024C214.44 211.64 214.189 211.187 214.008 210.664C213.837 210.131 213.752 209.533 213.752 208.872C213.752 208.221 213.837 207.629 214.008 207.096C214.189 206.563 214.44 206.109 214.76 205.736C215.091 205.352 215.48 205.059 215.928 204.856C216.387 204.653 216.899 204.552 217.464 204.552C218.019 204.552 218.515 204.653 218.952 204.856C219.389 205.059 219.763 205.341 220.072 205.704C220.381 206.056 220.616 206.477 220.776 206.968C220.947 207.459 221.032 207.997 221.032 208.584V209.192H215.096V209.576C215.096 209.928 215.149 210.259 215.256 210.568C215.373 210.867 215.533 211.128 215.736 211.352C215.949 211.576 216.205 211.752 216.504 211.88C216.813 212.008 217.16 212.072 217.544 212.072C218.067 212.072 218.52 211.949 218.904 211.704C219.299 211.459 219.603 211.107 219.816 210.648L220.728 211.304C220.461 211.869 220.045 212.328 219.48 212.68C218.915 213.021 218.243 213.192 217.464 213.192ZM217.464 205.624C217.112 205.624 216.792 205.688 216.504 205.816C216.216 205.933 215.965 206.104 215.752 206.328C215.549 206.552 215.389 206.819 215.272 207.128C215.155 207.427 215.096 207.757 215.096 208.12V208.232H219.656V208.056C219.656 207.32 219.453 206.733 219.048 206.296C218.653 205.848 218.125 205.624 217.464 205.624ZM226.213 213.192C225.637 213.192 225.12 213.091 224.661 212.888C224.203 212.685 223.813 212.397 223.493 212.024C223.184 211.651 222.944 211.197 222.773 210.664C222.613 210.131 222.533 209.533 222.533 208.872C222.533 208.211 222.613 207.613 222.773 207.08C222.944 206.547 223.184 206.093 223.493 205.72C223.813 205.347 224.203 205.059 224.661 204.856C225.12 204.653 225.637 204.552 226.213 204.552C227.035 204.552 227.691 204.733 228.181 205.096C228.683 205.448 229.056 205.912 229.301 206.488L228.229 207.032C228.08 206.605 227.835 206.275 227.493 206.04C227.152 205.805 226.725 205.688 226.213 205.688C225.829 205.688 225.493 205.752 225.205 205.88C224.917 205.997 224.677 206.168 224.485 206.392C224.293 206.605 224.149 206.867 224.053 207.176C223.957 207.475 223.909 207.805 223.909 208.168V209.576C223.909 210.301 224.101 210.899 224.485 211.368C224.88 211.827 225.456 212.056 226.213 212.056C227.248 212.056 227.995 211.576 228.453 210.616L229.381 211.24C229.115 211.837 228.715 212.312 228.181 212.664C227.659 213.016 227.003 213.192 226.213 213.192ZM232.004 213.192C231.663 213.192 231.412 213.107 231.252 212.936C231.103 212.765 231.028 212.541 231.028 212.264V212.056C231.028 211.779 231.103 211.555 231.252 211.384C231.412 211.213 231.663 211.128 232.004 211.128C232.345 211.128 232.591 211.213 232.74 211.384C232.9 211.555 232.98 211.779 232.98 212.056V212.264C232.98 212.541 232.9 212.765 232.74 212.936C232.591 213.107 232.345 213.192 232.004 213.192ZM239.329 204.744H240.609V206.088H240.673C240.886 205.565 241.195 205.181 241.601 204.936C242.017 204.68 242.513 204.552 243.089 204.552C243.601 204.552 244.065 204.653 244.481 204.856C244.897 205.059 245.249 205.347 245.537 205.72C245.835 206.093 246.059 206.547 246.209 207.08C246.369 207.613 246.449 208.211 246.449 208.872C246.449 209.533 246.369 210.131 246.209 210.664C246.059 211.197 245.835 211.651 245.537 212.024C245.249 212.397 244.897 212.685 244.481 212.888C244.065 213.091 243.601 213.192 243.089 213.192C241.969 213.192 241.163 212.68 240.673 211.656H240.609V216.2H239.329V204.744ZM242.737 212.04C243.462 212.04 244.033 211.816 244.449 211.368C244.865 210.909 245.073 210.312 245.073 209.576V208.168C245.073 207.432 244.865 206.84 244.449 206.392C244.033 205.933 243.462 205.704 242.737 205.704C242.449 205.704 242.171 205.747 241.905 205.832C241.649 205.907 241.425 206.013 241.233 206.152C241.041 206.291 240.886 206.461 240.769 206.664C240.662 206.856 240.609 207.064 240.609 207.288V210.36C240.609 210.627 240.662 210.867 240.769 211.08C240.886 211.283 241.041 211.459 241.233 211.608C241.425 211.747 241.649 211.853 241.905 211.928C242.171 212.003 242.449 212.04 242.737 212.04ZM254.61 213C254.13 213 253.783 212.872 253.57 212.616C253.367 212.36 253.239 212.04 253.186 211.656H253.106C252.925 212.168 252.626 212.552 252.21 212.808C251.794 213.064 251.298 213.192 250.722 213.192C249.847 213.192 249.165 212.968 248.674 212.52C248.194 212.072 247.954 211.464 247.954 210.696C247.954 209.917 248.237 209.32 248.802 208.904C249.378 208.488 250.269 208.28 251.474 208.28H253.106V207.464C253.106 206.877 252.946 206.429 252.626 206.12C252.306 205.811 251.815 205.656 251.154 205.656C250.653 205.656 250.231 205.768 249.89 205.992C249.559 206.216 249.282 206.515 249.058 206.888L248.29 206.168C248.514 205.72 248.871 205.341 249.362 205.032C249.853 204.712 250.471 204.552 251.218 204.552C252.221 204.552 252.999 204.797 253.554 205.288C254.109 205.779 254.386 206.461 254.386 207.336V211.88H255.33V213H254.61ZM250.93 212.104C251.25 212.104 251.543 212.067 251.81 211.992C252.077 211.917 252.306 211.811 252.498 211.672C252.69 211.533 252.839 211.373 252.946 211.192C253.053 211.011 253.106 210.813 253.106 210.6V209.24H251.41C250.674 209.24 250.135 209.347 249.794 209.56C249.463 209.773 249.298 210.083 249.298 210.488V210.824C249.298 211.229 249.442 211.544 249.73 211.768C250.029 211.992 250.429 212.104 250.93 212.104ZM260.419 213.192C259.843 213.192 259.326 213.096 258.867 212.904C258.408 212.712 258.019 212.413 257.699 212.008C257.379 211.603 257.128 211.08 256.947 210.44C256.776 209.789 256.691 209.005 256.691 208.088C256.691 206.904 256.766 205.891 256.915 205.048C257.075 204.205 257.326 203.512 257.667 202.968C258.008 202.424 258.44 202.019 258.963 201.752C259.496 201.475 260.142 201.304 260.899 201.24L263.491 201.032V202.328L260.739 202.552C260.27 202.595 259.875 202.685 259.555 202.824C259.235 202.963 258.968 203.181 258.755 203.48C258.552 203.768 258.392 204.152 258.275 204.632C258.168 205.112 258.088 205.709 258.035 206.424H258.099C258.344 205.859 258.659 205.437 259.043 205.16C259.438 204.883 259.955 204.744 260.595 204.744C261.118 204.744 261.598 204.84 262.035 205.032C262.472 205.224 262.846 205.501 263.155 205.864C263.464 206.216 263.704 206.659 263.875 207.192C264.056 207.715 264.147 208.312 264.147 208.984C264.147 209.613 264.056 210.184 263.875 210.696C263.694 211.208 263.438 211.651 263.107 212.024C262.776 212.397 262.382 212.685 261.923 212.888C261.475 213.091 260.974 213.192 260.419 213.192ZM260.483 212.056C260.814 212.056 261.118 212.003 261.395 211.896C261.672 211.789 261.912 211.629 262.115 211.416C262.318 211.203 262.478 210.941 262.595 210.632C262.712 210.323 262.771 209.96 262.771 209.544V208.536C262.771 207.64 262.552 206.973 262.115 206.536C261.678 206.099 261.091 205.88 260.355 205.88C259.587 205.88 259.011 206.072 258.627 206.456C258.254 206.829 258.067 207.32 258.067 207.928V209.4C258.067 210.296 258.286 210.963 258.723 211.4C259.16 211.837 259.747 212.056 260.483 212.056ZM269.386 213.192C268.832 213.192 268.325 213.091 267.866 212.888C267.408 212.685 267.013 212.397 266.682 212.024C266.362 211.64 266.112 211.187 265.93 210.664C265.749 210.131 265.658 209.533 265.658 208.872C265.658 208.221 265.749 207.629 265.93 207.096C266.112 206.563 266.362 206.109 266.682 205.736C267.013 205.352 267.408 205.059 267.866 204.856C268.325 204.653 268.832 204.552 269.386 204.552C269.941 204.552 270.442 204.653 270.89 204.856C271.349 205.059 271.744 205.352 272.074 205.736C272.405 206.109 272.661 206.563 272.842 207.096C273.024 207.629 273.114 208.221 273.114 208.872C273.114 209.533 273.024 210.131 272.842 210.664C272.661 211.187 272.405 211.64 272.074 212.024C271.744 212.397 271.349 212.685 270.89 212.888C270.442 213.091 269.941 213.192 269.386 213.192ZM269.386 212.056C270.08 212.056 270.645 211.843 271.082 211.416C271.52 210.989 271.738 210.339 271.738 209.464V208.28C271.738 207.405 271.52 206.755 271.082 206.328C270.645 205.901 270.08 205.688 269.386 205.688C268.693 205.688 268.128 205.901 267.69 206.328C267.253 206.755 267.034 207.405 267.034 208.28V209.464C267.034 210.339 267.253 210.989 267.69 211.416C268.128 211.843 268.693 212.056 269.386 212.056ZM276.792 205.864H273.976V204.744H280.888V205.864H278.072V213H276.792V205.864ZM282.563 204.744H283.843V207.736H286.035C286.867 207.736 287.528 207.971 288.019 208.44C288.51 208.909 288.755 209.555 288.755 210.376C288.755 211.208 288.515 211.853 288.035 212.312C287.555 212.771 286.894 213 286.051 213H282.563V204.744ZM285.859 211.88C286.339 211.88 286.712 211.789 286.979 211.608C287.246 211.427 287.379 211.123 287.379 210.696V210.024C287.379 209.597 287.246 209.299 286.979 209.128C286.712 208.947 286.339 208.856 285.859 208.856H283.843V211.88H285.859ZM290.147 204.744H291.427V213H290.147V204.744Z" fill="#A9A9A9"/>
<path d="M97.696 288.192C96.8533 288.192 96.1813 288.048 95.68 287.76C95.1787 287.472 94.768 287.061 94.448 286.528L95.408 285.76C95.6213 286.165 95.9147 286.485 96.288 286.72C96.672 286.944 97.1413 287.056 97.696 287.056C98.368 287.056 98.864 286.933 99.184 286.688C99.5147 286.443 99.68 286.128 99.68 285.744V285.552C99.68 285.136 99.536 284.821 99.248 284.608C98.9707 284.384 98.576 284.272 98.064 284.272H96.304V283.2H97.904C98.416 283.2 98.8107 283.099 99.088 282.896C99.3653 282.693 99.504 282.405 99.504 282.032V281.84C99.504 281.488 99.36 281.211 99.072 281.008C98.7947 280.795 98.3253 280.688 97.664 280.688C97.12 280.688 96.672 280.8 96.32 281.024C95.968 281.237 95.6853 281.531 95.472 281.904L94.624 281.184C94.88 280.704 95.2533 280.315 95.744 280.016C96.2453 279.707 96.9067 279.552 97.728 279.552C98.8053 279.552 99.6 279.749 100.112 280.144C100.624 280.539 100.88 281.083 100.88 281.776C100.88 282.288 100.741 282.693 100.464 282.992C100.197 283.291 99.808 283.499 99.296 283.616V283.68C99.8827 283.765 100.32 283.979 100.608 284.32C100.907 284.651 101.056 285.077 101.056 285.6C101.056 286.4 100.752 287.035 100.144 287.504C99.5467 287.963 98.7307 288.192 97.696 288.192ZM109.298 288C108.818 288 108.471 287.872 108.258 287.616C108.055 287.36 107.927 287.04 107.874 286.656H107.794C107.612 287.168 107.314 287.552 106.898 287.808C106.482 288.064 105.986 288.192 105.41 288.192C104.535 288.192 103.852 287.968 103.362 287.52C102.882 287.072 102.642 286.464 102.642 285.696C102.642 284.917 102.924 284.32 103.49 283.904C104.066 283.488 104.956 283.28 106.161 283.28H107.794V282.464C107.794 281.877 107.634 281.429 107.314 281.12C106.994 280.811 106.503 280.656 105.842 280.656C105.34 280.656 104.919 280.768 104.578 280.992C104.247 281.216 103.97 281.515 103.746 281.888L102.978 281.168C103.202 280.72 103.559 280.341 104.049 280.032C104.54 279.712 105.159 279.552 105.906 279.552C106.908 279.552 107.687 279.797 108.242 280.288C108.796 280.779 109.074 281.461 109.074 282.336V286.88H110.017V288H109.298ZM105.618 287.104C105.938 287.104 106.231 287.067 106.498 286.992C106.764 286.917 106.994 286.811 107.186 286.672C107.378 286.533 107.527 286.373 107.634 286.192C107.74 286.011 107.794 285.813 107.794 285.6V284.24H106.098C105.362 284.24 104.823 284.347 104.482 284.56C104.151 284.773 103.986 285.083 103.986 285.488V285.824C103.986 286.229 104.13 286.544 104.418 286.768C104.716 286.992 105.116 287.104 105.618 287.104ZM116.73 283.296H120.314V283.168C120.314 282.432 120.116 281.835 119.722 281.376C119.338 280.917 118.746 280.688 117.946 280.688C117.38 280.688 116.911 280.811 116.538 281.056C116.164 281.291 115.866 281.648 115.642 282.128L114.714 281.504C114.98 280.907 115.375 280.432 115.898 280.08C116.431 279.728 117.114 279.552 117.946 279.552C118.543 279.552 119.071 279.653 119.53 279.856C119.999 280.059 120.394 280.347 120.714 280.72C121.034 281.093 121.274 281.547 121.434 282.08C121.604 282.613 121.69 283.211 121.69 283.872C121.69 284.533 121.604 285.131 121.434 285.664C121.274 286.197 121.034 286.651 120.714 287.024C120.394 287.397 119.999 287.685 119.53 287.888C119.071 288.091 118.543 288.192 117.946 288.192C117.082 288.192 116.399 288.016 115.898 287.664C115.407 287.301 115.039 286.832 114.794 286.256L115.866 285.712C116.015 286.139 116.26 286.469 116.602 286.704C116.943 286.939 117.391 287.056 117.946 287.056C118.746 287.056 119.338 286.827 119.722 286.368C120.116 285.909 120.314 285.312 120.314 284.576V284.368H116.73V283.296ZM125.37 280.864H122.554V279.744H129.466V280.864H126.65V288H125.37V280.864ZM134.058 288.192C133.503 288.192 132.997 288.091 132.538 287.888C132.079 287.685 131.685 287.397 131.354 287.024C131.034 286.64 130.783 286.187 130.602 285.664C130.421 285.131 130.33 284.533 130.33 283.872C130.33 283.221 130.421 282.629 130.602 282.096C130.783 281.563 131.034 281.109 131.354 280.736C131.685 280.352 132.079 280.059 132.538 279.856C132.997 279.653 133.503 279.552 134.058 279.552C134.613 279.552 135.114 279.653 135.562 279.856C136.021 280.059 136.415 280.352 136.746 280.736C137.077 281.109 137.333 281.563 137.514 282.096C137.695 282.629 137.786 283.221 137.786 283.872C137.786 284.533 137.695 285.131 137.514 285.664C137.333 286.187 137.077 286.64 136.746 287.024C136.415 287.397 136.021 287.685 135.562 287.888C135.114 288.091 134.613 288.192 134.058 288.192ZM134.058 287.056C134.751 287.056 135.317 286.843 135.754 286.416C136.191 285.989 136.41 285.339 136.41 284.464V283.28C136.41 282.405 136.191 281.755 135.754 281.328C135.317 280.901 134.751 280.688 134.058 280.688C133.365 280.688 132.799 280.901 132.362 281.328C131.925 281.755 131.706 282.405 131.706 283.28V284.464C131.706 285.339 131.925 285.989 132.362 286.416C132.799 286.843 133.365 287.056 134.058 287.056ZM141.464 280.864H138.648V279.744H145.56V280.864H142.744V288H141.464V280.864ZM151.016 279.744H152.696L155.208 284.032H155.272L157.768 279.744H159.432V288H158.184V281.28H158.104L157.64 282.176L155.224 286.272L152.808 282.176L152.344 281.28H152.264V288H151.016V279.744ZM165.261 288.192C164.696 288.192 164.184 288.091 163.725 287.888C163.277 287.685 162.888 287.397 162.557 287.024C162.237 286.64 161.986 286.187 161.805 285.664C161.634 285.131 161.549 284.533 161.549 283.872C161.549 283.221 161.634 282.629 161.805 282.096C161.986 281.563 162.237 281.109 162.557 280.736C162.888 280.352 163.277 280.059 163.725 279.856C164.184 279.653 164.696 279.552 165.261 279.552C165.816 279.552 166.312 279.653 166.749 279.856C167.186 280.059 167.56 280.341 167.869 280.704C168.178 281.056 168.413 281.477 168.573 281.968C168.744 282.459 168.829 282.997 168.829 283.584V284.192H162.893V284.576C162.893 284.928 162.946 285.259 163.053 285.568C163.17 285.867 163.33 286.128 163.533 286.352C163.746 286.576 164.002 286.752 164.301 286.88C164.61 287.008 164.957 287.072 165.341 287.072C165.864 287.072 166.317 286.949 166.701 286.704C167.096 286.459 167.4 286.107 167.613 285.648L168.525 286.304C168.258 286.869 167.842 287.328 167.277 287.68C166.712 288.021 166.04 288.192 165.261 288.192ZM165.261 280.624C164.909 280.624 164.589 280.688 164.301 280.816C164.013 280.933 163.762 281.104 163.549 281.328C163.346 281.552 163.186 281.819 163.069 282.128C162.952 282.427 162.893 282.757 162.893 283.12V283.232H167.453V283.056C167.453 282.32 167.25 281.733 166.845 281.296C166.45 280.848 165.922 280.624 165.261 280.624ZM174.01 288.192C173.434 288.192 172.917 288.091 172.458 287.888C171.999 287.685 171.61 287.397 171.29 287.024C170.981 286.651 170.741 286.197 170.57 285.664C170.41 285.131 170.33 284.533 170.33 283.872C170.33 283.211 170.41 282.613 170.57 282.08C170.741 281.547 170.981 281.093 171.29 280.72C171.61 280.347 171.999 280.059 172.458 279.856C172.917 279.653 173.434 279.552 174.01 279.552C174.831 279.552 175.487 279.733 175.978 280.096C176.479 280.448 176.853 280.912 177.098 281.488L176.026 282.032C175.877 281.605 175.631 281.275 175.29 281.04C174.949 280.805 174.522 280.688 174.01 280.688C173.626 280.688 173.29 280.752 173.002 280.88C172.714 280.997 172.474 281.168 172.282 281.392C172.09 281.605 171.946 281.867 171.85 282.176C171.754 282.475 171.706 282.805 171.706 283.168V284.576C171.706 285.301 171.898 285.899 172.282 286.368C172.677 286.827 173.253 287.056 174.01 287.056C175.045 287.056 175.791 286.576 176.25 285.616L177.178 286.24C176.911 286.837 176.511 287.312 175.978 287.664C175.455 288.016 174.799 288.192 174.01 288.192ZM178.249 286.88H179.161L179.689 285.664C179.806 285.387 179.95 285.179 180.121 285.04C180.292 284.891 180.484 284.8 180.697 284.768V284.704C179.961 284.64 179.406 284.4 179.033 283.984C178.66 283.568 178.473 283.008 178.473 282.304C178.473 281.504 178.713 280.88 179.193 280.432C179.673 279.973 180.334 279.744 181.177 279.744H184.825V288H183.545V284.832H181.401L180.537 286.864C180.345 287.312 180.132 287.616 179.897 287.776C179.673 287.925 179.417 288 179.129 288H178.249V286.88ZM183.545 283.744V280.864H181.369C180.889 280.864 180.516 280.955 180.249 281.136C179.982 281.317 179.849 281.621 179.849 282.048V282.576C179.849 283.003 179.982 283.307 180.249 283.488C180.516 283.659 180.889 283.744 181.369 283.744H183.545ZM194.204 288H187.548V279.744H188.828V286.88H192.716V279.744H193.996V286.88H195.372V290.24H194.204V288ZM95.36 300.744H96.64V302.088H96.704C96.9173 301.565 97.2267 301.181 97.632 300.936C98.048 300.68 98.544 300.552 99.12 300.552C99.632 300.552 100.096 300.653 100.512 300.856C100.928 301.059 101.28 301.347 101.568 301.72C101.867 302.093 102.091 302.547 102.24 303.08C102.4 303.613 102.48 304.211 102.48 304.872C102.48 305.533 102.4 306.131 102.24 306.664C102.091 307.197 101.867 307.651 101.568 308.024C101.28 308.397 100.928 308.685 100.512 308.888C100.096 309.091 99.632 309.192 99.12 309.192C98 309.192 97.1947 308.68 96.704 307.656H96.64V312.2H95.36V300.744ZM98.768 308.04C99.4933 308.04 100.064 307.816 100.48 307.368C100.896 306.909 101.104 306.312 101.104 305.576V304.168C101.104 303.432 100.896 302.84 100.48 302.392C100.064 301.933 99.4933 301.704 98.768 301.704C98.48 301.704 98.2027 301.747 97.936 301.832C97.68 301.907 97.456 302.013 97.264 302.152C97.072 302.291 96.9173 302.461 96.8 302.664C96.6933 302.856 96.64 303.064 96.64 303.288V306.36C96.64 306.627 96.6933 306.867 96.8 307.08C96.9173 307.283 97.072 307.459 97.264 307.608C97.456 307.747 97.68 307.853 97.936 307.928C98.2027 308.003 98.48 308.04 98.768 308.04ZM110.641 309C110.161 309 109.815 308.872 109.601 308.616C109.399 308.36 109.271 308.04 109.217 307.656H109.137C108.956 308.168 108.657 308.552 108.241 308.808C107.825 309.064 107.329 309.192 106.753 309.192C105.879 309.192 105.196 308.968 104.705 308.52C104.225 308.072 103.985 307.464 103.985 306.696C103.985 305.917 104.268 305.32 104.833 304.904C105.409 304.488 106.3 304.28 107.505 304.28H109.137V303.464C109.137 302.877 108.977 302.429 108.657 302.12C108.337 301.811 107.847 301.656 107.185 301.656C106.684 301.656 106.263 301.768 105.921 301.992C105.591 302.216 105.313 302.515 105.089 302.888L104.321 302.168C104.545 301.72 104.903 301.341 105.393 301.032C105.884 300.712 106.503 300.552 107.249 300.552C108.252 300.552 109.031 300.797 109.585 301.288C110.14 301.779 110.417 302.461 110.417 303.336V307.88H111.361V309H110.641ZM106.961 308.104C107.281 308.104 107.575 308.067 107.841 307.992C108.108 307.917 108.337 307.811 108.529 307.672C108.721 307.533 108.871 307.373 108.977 307.192C109.084 307.011 109.137 306.813 109.137 306.6V305.24H107.441C106.705 305.24 106.167 305.347 105.825 305.56C105.495 305.773 105.329 306.083 105.329 306.488V306.824C105.329 307.229 105.473 307.544 105.761 307.768C106.06 307.992 106.46 308.104 106.961 308.104ZM116.45 309.192C115.874 309.192 115.357 309.096 114.898 308.904C114.44 308.712 114.05 308.413 113.73 308.008C113.41 307.603 113.16 307.08 112.978 306.44C112.808 305.789 112.722 305.005 112.722 304.088C112.722 302.904 112.797 301.891 112.946 301.048C113.106 300.205 113.357 299.512 113.698 298.968C114.04 298.424 114.472 298.019 114.994 297.752C115.528 297.475 116.173 297.304 116.93 297.24L119.522 297.032V298.328L116.77 298.552C116.301 298.595 115.906 298.685 115.586 298.824C115.266 298.963 115 299.181 114.786 299.48C114.584 299.768 114.424 300.152 114.306 300.632C114.2 301.112 114.12 301.709 114.066 302.424H114.13C114.376 301.859 114.69 301.437 115.074 301.16C115.469 300.883 115.986 300.744 116.626 300.744C117.149 300.744 117.629 300.84 118.066 301.032C118.504 301.224 118.877 301.501 119.186 301.864C119.496 302.216 119.736 302.659 119.906 303.192C120.088 303.715 120.178 304.312 120.178 304.984C120.178 305.613 120.088 306.184 119.906 306.696C119.725 307.208 119.469 307.651 119.138 308.024C118.808 308.397 118.413 308.685 117.954 308.888C117.506 309.091 117.005 309.192 116.45 309.192ZM116.514 308.056C116.845 308.056 117.149 308.003 117.426 307.896C117.704 307.789 117.944 307.629 118.146 307.416C118.349 307.203 118.509 306.941 118.626 306.632C118.744 306.323 118.802 305.96 118.802 305.544V304.536C118.802 303.64 118.584 302.973 118.146 302.536C117.709 302.099 117.122 301.88 116.386 301.88C115.618 301.88 115.042 302.072 114.658 302.456C114.285 302.829 114.098 303.32 114.098 303.928V305.4C114.098 306.296 114.317 306.963 114.754 307.4C115.192 307.837 115.778 308.056 116.514 308.056ZM125.418 309.192C124.863 309.192 124.356 309.091 123.898 308.888C123.439 308.685 123.044 308.397 122.714 308.024C122.394 307.64 122.143 307.187 121.962 306.664C121.78 306.131 121.69 305.533 121.69 304.872C121.69 304.221 121.78 303.629 121.962 303.096C122.143 302.563 122.394 302.109 122.714 301.736C123.044 301.352 123.439 301.059 123.898 300.856C124.356 300.653 124.863 300.552 125.418 300.552C125.972 300.552 126.474 300.653 126.922 300.856C127.38 301.059 127.775 301.352 128.106 301.736C128.436 302.109 128.692 302.563 128.874 303.096C129.055 303.629 129.146 304.221 129.146 304.872C129.146 305.533 129.055 306.131 128.874 306.664C128.692 307.187 128.436 307.64 128.106 308.024C127.775 308.397 127.38 308.685 126.922 308.888C126.474 309.091 125.972 309.192 125.418 309.192ZM125.418 308.056C126.111 308.056 126.676 307.843 127.114 307.416C127.551 306.989 127.77 306.339 127.77 305.464V304.28C127.77 303.405 127.551 302.755 127.114 302.328C126.676 301.901 126.111 301.688 125.418 301.688C124.724 301.688 124.159 301.901 123.722 302.328C123.284 302.755 123.066 303.405 123.066 304.28V305.464C123.066 306.339 123.284 306.989 123.722 307.416C124.159 307.843 124.724 308.056 125.418 308.056ZM132.824 301.864H130.008V300.744H136.92V301.864H134.104V309H132.824V301.864ZM138.594 300.744H139.874V303.736H142.066C142.898 303.736 143.56 303.971 144.05 304.44C144.541 304.909 144.786 305.555 144.786 306.376C144.786 307.208 144.546 307.853 144.066 308.312C143.586 308.771 142.925 309 142.082 309H138.594V300.744ZM141.89 307.88C142.37 307.88 142.744 307.789 143.01 307.608C143.277 307.427 143.41 307.123 143.41 306.696V306.024C143.41 305.597 143.277 305.299 143.01 305.128C142.744 304.947 142.37 304.856 141.89 304.856H139.874V307.88H141.89ZM146.178 300.744H147.458V309H146.178V300.744Z" fill="#A9A9A9"/>
<path d="M248.48 288.192C247.925 288.192 247.419 288.091 246.96 287.888C246.501 287.685 246.107 287.397 245.776 287.024C245.456 286.64 245.205 286.187 245.024 285.664C244.843 285.131 244.752 284.533 244.752 283.872C244.752 283.221 244.843 282.629 245.024 282.096C245.205 281.563 245.456 281.109 245.776 280.736C246.107 280.352 246.501 280.059 246.96 279.856C247.419 279.653 247.925 279.552 248.48 279.552C249.035 279.552 249.536 279.653 249.984 279.856C250.443 280.059 250.837 280.352 251.168 280.736C251.499 281.109 251.755 281.563 251.936 282.096C252.117 282.629 252.208 283.221 252.208 283.872C252.208 284.533 252.117 285.131 251.936 285.664C251.755 286.187 251.499 286.64 251.168 287.024C250.837 287.397 250.443 287.685 249.984 287.888C249.536 288.091 249.035 288.192 248.48 288.192ZM248.48 287.056C249.173 287.056 249.739 286.843 250.176 286.416C250.613 285.989 250.832 285.339 250.832 284.464V283.28C250.832 282.405 250.613 281.755 250.176 281.328C249.739 280.901 249.173 280.688 248.48 280.688C247.787 280.688 247.221 280.901 246.784 281.328C246.347 281.755 246.128 282.405 246.128 283.28V284.464C246.128 285.339 246.347 285.989 246.784 286.416C247.221 286.843 247.787 287.056 248.48 287.056ZM253.343 286.88H254.303L255.231 284.656C255.348 284.379 255.492 284.171 255.663 284.032C255.834 283.893 256.026 283.808 256.239 283.776V283.712C256.026 283.648 255.839 283.541 255.679 283.392C255.519 283.243 255.38 283.035 255.263 282.768L254.415 280.864H253.455V279.744H254.207C254.527 279.744 254.804 279.824 255.039 279.984C255.284 280.144 255.487 280.4 255.647 280.752L256.751 283.2H258.223V279.744H259.503V283.2H260.975L262.079 280.752C262.239 280.4 262.436 280.144 262.671 279.984C262.916 279.824 263.199 279.744 263.519 279.744H264.271V280.864H263.311L262.463 282.768C262.346 283.035 262.207 283.243 262.047 283.392C261.887 283.541 261.7 283.648 261.487 283.712V283.776C261.7 283.808 261.892 283.893 262.063 284.032C262.234 284.171 262.378 284.379 262.495 284.656L263.423 286.88H264.383V288H263.471C263.183 288 262.922 287.925 262.687 287.776C262.452 287.616 262.244 287.317 262.063 286.88L260.975 284.288H259.503V288H258.223V284.288H256.751L255.663 286.88C255.482 287.317 255.274 287.616 255.039 287.776C254.804 287.925 254.543 288 254.255 288H253.343V286.88ZM266.376 279.744H267.624V284.32L267.496 286.304H267.56L268.584 284.544L271.88 279.744H273.064V288H271.816V283.424L271.944 281.44H271.88L270.856 283.2L267.56 288H266.376V279.744ZM274.55 286.88H275.494C275.825 286.347 276.091 285.68 276.294 284.88C276.497 284.08 276.598 283.163 276.598 282.128V279.744H282.182V286.88H283.558V290.24H282.39V288H275.718V290.24H274.55V286.88ZM280.902 286.88V280.864H277.814V282.192C277.814 283.291 277.718 284.229 277.526 285.008C277.345 285.776 277.126 286.4 276.87 286.88H280.902ZM291.329 288C290.849 288 290.502 287.872 290.289 287.616C290.086 287.36 289.958 287.04 289.905 286.656H289.825C289.643 287.168 289.345 287.552 288.929 287.808C288.513 288.064 288.017 288.192 287.441 288.192C286.566 288.192 285.883 287.968 285.393 287.52C284.913 287.072 284.673 286.464 284.673 285.696C284.673 284.917 284.955 284.32 285.521 283.904C286.097 283.488 286.987 283.28 288.193 283.28H289.825V282.464C289.825 281.877 289.665 281.429 289.345 281.12C289.025 280.811 288.534 280.656 287.873 280.656C287.371 280.656 286.95 280.768 286.609 280.992C286.278 281.216 286.001 281.515 285.777 281.888L285.009 281.168C285.233 280.72 285.59 280.341 286.081 280.032C286.571 279.712 287.19 279.552 287.937 279.552C288.939 279.552 289.718 279.797 290.273 280.288C290.827 280.779 291.105 281.461 291.105 282.336V286.88H292.049V288H291.329ZM287.649 287.104C287.969 287.104 288.262 287.067 288.529 286.992C288.795 286.917 289.025 286.811 289.217 286.672C289.409 286.533 289.558 286.373 289.665 286.192C289.771 286.011 289.825 285.813 289.825 285.6V284.24H288.129C287.393 284.24 286.854 284.347 286.513 284.56C286.182 284.773 286.017 285.083 286.017 285.488V285.824C286.017 286.229 286.161 286.544 286.449 286.768C286.747 286.992 287.147 287.104 287.649 287.104ZM296.98 288.192C296.414 288.192 295.902 288.091 295.444 287.888C294.996 287.685 294.606 287.397 294.276 287.024C293.956 286.64 293.705 286.187 293.524 285.664C293.353 285.131 293.268 284.533 293.268 283.872C293.268 283.221 293.353 282.629 293.524 282.096C293.705 281.563 293.956 281.109 294.276 280.736C294.606 280.352 294.996 280.059 295.444 279.856C295.902 279.653 296.414 279.552 296.98 279.552C297.534 279.552 298.03 279.653 298.468 279.856C298.905 280.059 299.278 280.341 299.588 280.704C299.897 281.056 300.132 281.477 300.292 281.968C300.462 282.459 300.548 282.997 300.548 283.584V284.192H294.612V284.576C294.612 284.928 294.665 285.259 294.772 285.568C294.889 285.867 295.049 286.128 295.252 286.352C295.465 286.576 295.721 286.752 296.02 286.88C296.329 287.008 296.676 287.072 297.06 287.072C297.582 287.072 298.036 286.949 298.42 286.704C298.814 286.459 299.118 286.107 299.332 285.648L300.244 286.304C299.977 286.869 299.561 287.328 298.996 287.68C298.43 288.021 297.758 288.192 296.98 288.192ZM296.98 280.624C296.628 280.624 296.308 280.688 296.02 280.816C295.732 280.933 295.481 281.104 295.268 281.328C295.065 281.552 294.905 281.819 294.788 282.128C294.67 282.427 294.612 282.757 294.612 283.12V283.232H299.172V283.056C299.172 282.32 298.969 281.733 298.564 281.296C298.169 280.848 297.641 280.624 296.98 280.624ZM302.657 279.744H304.337L306.849 284.032H306.913L309.409 279.744H311.073V288H309.825V281.28H309.745L309.281 282.176L306.865 286.272L304.449 282.176L303.985 281.28H303.905V288H302.657V279.744ZM313.798 279.744H315.078V282.736H317.27C318.102 282.736 318.763 282.971 319.254 283.44C319.744 283.909 319.99 284.555 319.99 285.376C319.99 286.208 319.75 286.853 319.27 287.312C318.79 287.771 318.128 288 317.286 288H313.798V279.744ZM317.094 286.88C317.574 286.88 317.947 286.789 318.214 286.608C318.48 286.427 318.614 286.123 318.614 285.696V285.024C318.614 284.597 318.48 284.299 318.214 284.128C317.947 283.947 317.574 283.856 317.094 283.856H315.078V286.88H317.094ZM321.382 279.744H322.662V288H321.382V279.744ZM325.376 279.744H326.624V284.32L326.496 286.304H326.56L327.584 284.544L330.88 279.744H332.064V288H330.816V283.424L330.944 281.44H330.88L329.856 283.2L326.56 288H325.376V279.744ZM328.752 278.464C328.176 278.464 327.717 278.352 327.376 278.128C327.034 277.893 326.762 277.589 326.56 277.216L326.24 276.608L327.36 276.112L327.92 277.424C328.048 277.456 328.186 277.483 328.336 277.504C328.485 277.515 328.624 277.52 328.752 277.52C328.88 277.52 329.018 277.515 329.168 277.504C329.317 277.483 329.456 277.456 329.584 277.424L330.144 276.112L331.264 276.608L330.944 277.216C330.741 277.589 330.469 277.893 330.128 278.128C329.786 278.352 329.328 278.464 328.752 278.464ZM245.36 300.744H251.808V309H250.528V301.864H246.64V309H245.36V300.744ZM254.532 300.744H255.812V302.088H255.876C256.089 301.565 256.399 301.181 256.804 300.936C257.22 300.68 257.716 300.552 258.292 300.552C258.804 300.552 259.268 300.653 259.684 300.856C260.1 301.059 260.452 301.347 260.74 301.72C261.039 302.093 261.263 302.547 261.412 303.08C261.572 303.613 261.652 304.211 261.652 304.872C261.652 305.533 261.572 306.131 261.412 306.664C261.263 307.197 261.039 307.651 260.74 308.024C260.452 308.397 260.1 308.685 259.684 308.888C259.268 309.091 258.804 309.192 258.292 309.192C257.172 309.192 256.367 308.68 255.876 307.656H255.812V312.2H254.532V300.744ZM257.94 308.04C258.665 308.04 259.236 307.816 259.652 307.368C260.068 306.909 260.276 306.312 260.276 305.576V304.168C260.276 303.432 260.068 302.84 259.652 302.392C259.236 301.933 258.665 301.704 257.94 301.704C257.652 301.704 257.375 301.747 257.108 301.832C256.852 301.907 256.628 302.013 256.436 302.152C256.244 302.291 256.089 302.461 255.972 302.664C255.865 302.856 255.812 303.064 255.812 303.288V306.36C255.812 306.627 255.865 306.867 255.972 307.08C256.089 307.283 256.244 307.459 256.436 307.608C256.628 307.747 256.852 307.853 257.108 307.928C257.375 308.003 257.652 308.04 257.94 308.04ZM263.813 300.744H265.061V305.32L264.933 307.304H264.997L266.021 305.544L269.317 300.744H270.501V309H269.253V304.424L269.381 302.44H269.317L268.293 304.2L264.997 309H263.813V300.744ZM273.219 300.744H274.499V302.088H274.563C274.777 301.565 275.086 301.181 275.491 300.936C275.907 300.68 276.403 300.552 276.979 300.552C277.491 300.552 277.955 300.653 278.371 300.856C278.787 301.059 279.139 301.347 279.427 301.72C279.726 302.093 279.95 302.547 280.099 303.08C280.259 303.613 280.339 304.211 280.339 304.872C280.339 305.533 280.259 306.131 280.099 306.664C279.95 307.197 279.726 307.651 279.427 308.024C279.139 308.397 278.787 308.685 278.371 308.888C277.955 309.091 277.491 309.192 276.979 309.192C275.859 309.192 275.054 308.68 274.563 307.656H274.499V312.2H273.219V300.744ZM276.627 308.04C277.353 308.04 277.923 307.816 278.339 307.368C278.755 306.909 278.963 306.312 278.963 305.576V304.168C278.963 303.432 278.755 302.84 278.339 302.392C277.923 301.933 277.353 301.704 276.627 301.704C276.339 301.704 276.062 301.747 275.795 301.832C275.539 301.907 275.315 302.013 275.123 302.152C274.931 302.291 274.777 302.461 274.659 302.664C274.553 302.856 274.499 303.064 274.499 303.288V306.36C274.499 306.627 274.553 306.867 274.659 307.08C274.777 307.283 274.931 307.459 275.123 307.608C275.315 307.747 275.539 307.853 275.795 307.928C276.062 308.003 276.339 308.04 276.627 308.04ZM285.621 309.192C285.066 309.192 284.559 309.091 284.101 308.888C283.642 308.685 283.247 308.397 282.917 308.024C282.597 307.64 282.346 307.187 282.165 306.664C281.983 306.131 281.893 305.533 281.893 304.872C281.893 304.221 281.983 303.629 282.165 303.096C282.346 302.563 282.597 302.109 282.917 301.736C283.247 301.352 283.642 301.059 284.101 300.856C284.559 300.653 285.066 300.552 285.621 300.552C286.175 300.552 286.677 300.653 287.125 300.856C287.583 301.059 287.978 301.352 288.309 301.736C288.639 302.109 288.895 302.563 289.077 303.096C289.258 303.629 289.349 304.221 289.349 304.872C289.349 305.533 289.258 306.131 289.077 306.664C288.895 307.187 288.639 307.64 288.309 308.024C287.978 308.397 287.583 308.685 287.125 308.888C286.677 309.091 286.175 309.192 285.621 309.192ZM285.621 308.056C286.314 308.056 286.879 307.843 287.317 307.416C287.754 306.989 287.973 306.339 287.973 305.464V304.28C287.973 303.405 287.754 302.755 287.317 302.328C286.879 301.901 286.314 301.688 285.621 301.688C284.927 301.688 284.362 301.901 283.925 302.328C283.487 302.755 283.269 303.405 283.269 304.28V305.464C283.269 306.339 283.487 306.989 283.925 307.416C284.362 307.843 284.927 308.056 285.621 308.056ZM294.526 309.192C293.95 309.192 293.432 309.091 292.974 308.888C292.515 308.685 292.126 308.397 291.806 308.024C291.496 307.651 291.256 307.197 291.086 306.664C290.926 306.131 290.846 305.533 290.846 304.872C290.846 304.211 290.926 303.613 291.086 303.08C291.256 302.547 291.496 302.093 291.806 301.72C292.126 301.347 292.515 301.059 292.974 300.856C293.432 300.653 293.95 300.552 294.526 300.552C295.347 300.552 296.003 300.733 296.494 301.096C296.995 301.448 297.368 301.912 297.614 302.488L296.542 303.032C296.392 302.605 296.147 302.275 295.806 302.04C295.464 301.805 295.038 301.688 294.526 301.688C294.142 301.688 293.806 301.752 293.518 301.88C293.23 301.997 292.99 302.168 292.798 302.392C292.606 302.605 292.462 302.867 292.366 303.176C292.27 303.475 292.222 303.805 292.222 304.168V305.576C292.222 306.301 292.414 306.899 292.798 307.368C293.192 307.827 293.768 308.056 294.526 308.056C295.56 308.056 296.307 307.576 296.766 306.616L297.694 307.24C297.427 307.837 297.027 308.312 296.494 308.664C295.971 309.016 295.315 309.192 294.526 309.192ZM301.339 301.864H298.523V300.744H305.435V301.864H302.619V309H301.339V301.864Z" fill="#A9A9A9"/>
<path d="M126.192 257.248C126.789 257.248 127.221 257.136 127.488 256.912C127.765 256.677 127.904 256.389 127.904 256.048V255.936C127.904 255.531 127.771 255.205 127.504 254.96C127.248 254.715 126.88 254.592 126.4 254.592C125.952 254.592 125.531 254.709 125.136 254.944C124.741 255.168 124.405 255.493 124.128 255.92L122.624 254.512C122.837 254.235 123.067 253.984 123.312 253.76C123.557 253.525 123.835 253.328 124.144 253.168C124.453 252.997 124.8 252.869 125.184 252.784C125.568 252.688 126 252.64 126.48 252.64C127.077 252.64 127.616 252.709 128.096 252.848C128.587 252.987 129.003 253.189 129.344 253.456C129.696 253.712 129.963 254.021 130.144 254.384C130.336 254.747 130.432 255.152 130.432 255.6C130.432 255.952 130.373 256.272 130.256 256.56C130.149 256.848 129.995 257.099 129.792 257.312C129.6 257.525 129.376 257.701 129.12 257.84C128.864 257.968 128.592 258.059 128.304 258.112V258.208C128.635 258.272 128.939 258.379 129.216 258.528C129.504 258.667 129.749 258.848 129.952 259.072C130.165 259.296 130.331 259.563 130.448 259.872C130.565 260.171 130.624 260.512 130.624 260.896C130.624 261.397 130.523 261.851 130.32 262.256C130.117 262.661 129.829 263.008 129.456 263.296C129.083 263.584 128.635 263.808 128.112 263.968C127.589 264.117 127.013 264.192 126.384 264.192C125.819 264.192 125.317 264.133 124.88 264.016C124.443 263.899 124.059 263.744 123.728 263.552C123.408 263.349 123.125 263.12 122.88 262.864C122.645 262.608 122.437 262.336 122.256 262.048L124.032 260.672C124.277 261.131 124.576 261.509 124.928 261.808C125.291 262.096 125.776 262.24 126.384 262.24C126.928 262.24 127.349 262.107 127.648 261.84C127.957 261.563 128.112 261.189 128.112 260.72V260.624C128.112 260.165 127.936 259.824 127.584 259.6C127.243 259.365 126.768 259.248 126.16 259.248H125.152V257.248H126.192ZM134.074 264.176C133.594 264.176 133.236 264.059 133.002 263.824C132.778 263.579 132.666 263.269 132.666 262.896V262.576C132.666 262.203 132.778 261.899 133.002 261.664C133.236 261.419 133.594 261.296 134.074 261.296C134.554 261.296 134.906 261.419 135.13 261.664C135.364 261.899 135.482 262.203 135.482 262.576V262.896C135.482 263.269 135.364 263.579 135.13 263.824C134.906 264.059 134.554 264.176 134.074 264.176ZM141.939 264V261.856H137.027V259.808L141.379 252.832H144.227V260H145.635V261.856H144.227V264H141.939ZM138.947 260H141.939V255.312H141.779L138.947 260ZM148.797 264L152.541 254.784H149.053V256.816H147.021V252.832H154.925V254.912L151.325 264H148.797ZM158.598 264L166.342 252.832H168.454L160.71 264H158.598ZM159.414 258.976C158.476 258.976 157.761 258.709 157.27 258.176C156.78 257.643 156.534 256.853 156.534 255.808C156.534 254.763 156.78 253.973 157.27 253.44C157.761 252.907 158.476 252.64 159.414 252.64C160.353 252.64 161.068 252.907 161.558 253.44C162.049 253.973 162.294 254.763 162.294 255.808C162.294 256.853 162.049 257.643 161.558 258.176C161.068 258.709 160.353 258.976 159.414 258.976ZM159.414 257.6C159.692 257.6 159.9 257.493 160.038 257.28C160.177 257.056 160.246 256.704 160.246 256.224V255.392C160.246 254.912 160.177 254.565 160.038 254.352C159.9 254.128 159.692 254.016 159.414 254.016C159.137 254.016 158.929 254.128 158.79 254.352C158.652 254.565 158.582 254.912 158.582 255.392V256.224C158.582 256.704 158.652 257.056 158.79 257.28C158.929 257.493 159.137 257.6 159.414 257.6ZM167.638 264.192C166.7 264.192 165.985 263.925 165.494 263.392C165.004 262.859 164.758 262.069 164.758 261.024C164.758 259.979 165.004 259.189 165.494 258.656C165.985 258.123 166.7 257.856 167.638 257.856C168.577 257.856 169.292 258.123 169.782 258.656C170.273 259.189 170.518 259.979 170.518 261.024C170.518 262.069 170.273 262.859 169.782 263.392C169.292 263.925 168.577 264.192 167.638 264.192ZM167.638 262.816C167.916 262.816 168.124 262.709 168.262 262.496C168.401 262.272 168.47 261.92 168.47 261.44V260.608C168.47 260.128 168.401 259.781 168.262 259.568C168.124 259.344 167.916 259.232 167.638 259.232C167.361 259.232 167.153 259.344 167.014 259.568C166.876 259.781 166.806 260.128 166.806 260.608V261.44C166.806 261.92 166.876 262.272 167.014 262.496C167.153 262.709 167.361 262.816 167.638 262.816Z" fill="#61CAFF"/>
<path d="M274.656 264L278.4 254.784H274.912V256.816H272.88V252.832H280.784V254.912L277.184 264H274.656ZM284.074 264.176C283.594 264.176 283.236 264.059 283.002 263.824C282.778 263.579 282.666 263.269 282.666 262.896V262.576C282.666 262.203 282.778 261.899 283.002 261.664C283.236 261.419 283.594 261.296 284.074 261.296C284.554 261.296 284.906 261.419 285.13 261.664C285.364 261.899 285.482 262.203 285.482 262.576V262.896C285.482 263.269 285.364 263.579 285.13 263.824C284.906 264.059 284.554 264.176 284.074 264.176ZM295.363 264H287.459V261.808L290.899 258.864C291.208 258.597 291.47 258.357 291.683 258.144C291.896 257.92 292.067 257.707 292.195 257.504C292.334 257.291 292.43 257.083 292.483 256.88C292.547 256.677 292.579 256.459 292.579 256.224V256C292.579 255.787 292.536 255.6 292.451 255.44C292.366 255.28 292.254 255.147 292.115 255.04C291.976 254.933 291.816 254.853 291.635 254.8C291.464 254.747 291.288 254.72 291.107 254.72C290.84 254.72 290.606 254.763 290.403 254.848C290.211 254.933 290.04 255.051 289.891 255.2C289.752 255.339 289.635 255.504 289.539 255.696C289.443 255.877 289.368 256.075 289.315 256.288L287.219 255.488C287.347 255.104 287.523 254.741 287.747 254.4C287.971 254.048 288.248 253.744 288.579 253.488C288.92 253.221 289.32 253.013 289.779 252.864C290.238 252.715 290.755 252.64 291.331 252.64C291.939 252.64 292.478 252.725 292.947 252.896C293.416 253.067 293.811 253.301 294.131 253.6C294.462 253.899 294.712 254.256 294.883 254.672C295.054 255.077 295.139 255.52 295.139 256C295.139 256.48 295.059 256.917 294.899 257.312C294.739 257.707 294.52 258.08 294.243 258.432C293.976 258.773 293.662 259.099 293.299 259.408C292.936 259.717 292.558 260.032 292.163 260.352L290.083 261.984H295.363V264ZM301.533 264V261.856H296.621V259.808L300.973 252.832H303.821V260H305.229V261.856H303.821V264H301.533ZM298.541 260H301.533V255.312H301.373L298.541 260ZM308.598 264L316.342 252.832H318.454L310.71 264H308.598ZM309.414 258.976C308.476 258.976 307.761 258.709 307.27 258.176C306.78 257.643 306.534 256.853 306.534 255.808C306.534 254.763 306.78 253.973 307.27 253.44C307.761 252.907 308.476 252.64 309.414 252.64C310.353 252.64 311.068 252.907 311.558 253.44C312.049 253.973 312.294 254.763 312.294 255.808C312.294 256.853 312.049 257.643 311.558 258.176C311.068 258.709 310.353 258.976 309.414 258.976ZM309.414 257.6C309.692 257.6 309.9 257.493 310.038 257.28C310.177 257.056 310.246 256.704 310.246 256.224V255.392C310.246 254.912 310.177 254.565 310.038 254.352C309.9 254.128 309.692 254.016 309.414 254.016C309.137 254.016 308.929 254.128 308.79 254.352C308.652 254.565 308.582 254.912 308.582 255.392V256.224C308.582 256.704 308.652 257.056 308.79 257.28C308.929 257.493 309.137 257.6 309.414 257.6ZM317.638 264.192C316.7 264.192 315.985 263.925 315.494 263.392C315.004 262.859 314.758 262.069 314.758 261.024C314.758 259.979 315.004 259.189 315.494 258.656C315.985 258.123 316.7 257.856 317.638 257.856C318.577 257.856 319.292 258.123 319.782 258.656C320.273 259.189 320.518 259.979 320.518 261.024C320.518 262.069 320.273 262.859 319.782 263.392C319.292 263.925 318.577 264.192 317.638 264.192ZM317.638 262.816C317.916 262.816 318.124 262.709 318.262 262.496C318.401 262.272 318.47 261.92 318.47 261.44V260.608C318.47 260.128 318.401 259.781 318.262 259.568C318.124 259.344 317.916 259.232 317.638 259.232C317.361 259.232 317.153 259.344 317.014 259.568C316.876 259.781 316.806 260.128 316.806 260.608V261.44C316.806 261.92 316.876 262.272 317.014 262.496C317.153 262.709 317.361 262.816 317.638 262.816Z" fill="#61CAFF"/>
<path d="M100.556 254.478C100.142 254.478 99.8063 254.142 99.8063 253.728C99.8063 253.314 100.142 252.978 100.556 252.978L106.213 252.978C106.627 252.978 106.963 253.314 106.963 253.728L106.963 259.385C106.963 259.799 106.627 260.135 106.213 260.135C105.799 260.135 105.463 259.799 105.463 259.385L105.463 255.539L98.6118 262.39C98.3189 262.683 97.844 262.683 97.5511 262.39C97.2582 262.097 97.2582 261.622 97.5511 261.329L104.403 254.478L100.556 254.478Z" fill="#61CAFF"/>
<path d="M250.556 254.478C250.142 254.478 249.806 254.142 249.806 253.728C249.806 253.314 250.142 252.978 250.556 252.978L256.213 252.978C256.627 252.978 256.963 253.314 256.963 253.728L256.963 259.385C256.963 259.799 256.627 260.135 256.213 260.135C255.799 260.135 255.463 259.799 255.463 259.385L255.463 255.539L248.612 262.39C248.319 262.683 247.844 262.683 247.551 262.39C247.258 262.097 247.258 261.622 247.551 261.329L254.403 254.478L250.556 254.478Z" fill="#61CAFF"/>
<defs>
<filter id="filter0_d_81_317" x="0" y="0.00012207" width="461" height="416" filterUnits="userSpaceOnUse" color-interpolation-filters="sRGB">
<feFlood flood-opacity="0" result="BackgroundImageFix"/>
<feColorMatrix in="SourceAlpha" type="matrix" values="0 0 0 0 0 0 0 0 0 0 0 0 0 0 0 0 0 0 127 0" result="hardAlpha"/>
<feOffset dy="30"/>
<feGaussianBlur stdDeviation="16"/>
<feComposite in2="hardAlpha" operator="out"/>
<feColorMatrix type="matrix" values="0 0 0 0 0 0 0 0 0 0 0 0 0 0 0 0 0 0 0.25 0"/>
<feBlend mode="normal" in2="BackgroundImageFix" result="effect1_dropShadow_81_317"/>
<feBlend mode="normal" in="SourceGraphic" in2="effect1_dropShadow_81_317" result="shape"/>
</filter>
<linearGradient id="paint0_linear_81_317" x1="117.5" y1="197" x2="325" y2="138.5" gradientUnits="userSpaceOnUse">
<stop stop-color="#3592C0"/>
<stop offset="1" stop-color="#61CAFF"/>
</linearGradient>
</defs>
</svg>
