<svg width="25" height="24" viewBox="0 0 25 24" fill="none" xmlns="http://www.w3.org/2000/svg">
<path d="M22 5.375H19.4112C19.5419 5.00688 19.625 4.60313 19.625 4.1875C19.625 2.21625 18.0338 0.625 16.0625 0.625C14.8156 0.625 13.735 1.26625 13.0938 2.22812L12.5 3.02375L11.9062 2.21625C11.265 1.26625 10.1844 0.625 8.9375 0.625C6.96625 0.625 5.375 2.21625 5.375 4.1875C5.375 4.60313 5.45812 5.00688 5.58875 5.375H3C1.68187 5.375 0.636875 6.43187 0.636875 7.75L0.625 20.8125C0.625 22.1306 1.68187 23.1875 3 23.1875H22C23.3181 23.1875 24.375 22.1306 24.375 20.8125V7.75C24.375 6.43187 23.3181 5.375 22 5.375ZM16.0625 3C16.7156 3 17.25 3.53437 17.25 4.1875C17.25 4.84062 16.7156 5.375 16.0625 5.375C15.4094 5.375 14.875 4.84062 14.875 4.1875C14.875 3.53437 15.4094 3 16.0625 3ZM8.9375 3C9.59062 3 10.125 3.53437 10.125 4.1875C10.125 4.84062 9.59062 5.375 8.9375 5.375C8.28438 5.375 7.75 4.84062 7.75 4.1875C7.75 3.53437 8.28438 3 8.9375 3ZM22 20.8125H3V18.4375H22V20.8125ZM22 14.875H3V8.9375C3 8.28438 3.53437 7.75 4.1875 7.75H9.0325L7.275 10.1488C6.88312 10.6831 7.00188 11.4313 7.53625 11.8112C8.05875 12.1912 8.80688 12.0725 9.18688 11.55L12.5 7.0375L15.8131 11.55C16.1931 12.0725 16.9412 12.1912 17.4638 11.8112C17.9981 11.4313 18.1169 10.6831 17.725 10.1488L15.9675 7.75H20.8125C21.4656 7.75 22 8.28438 22 8.9375V14.875Z" fill="white"/>
</svg>
