<svg width="57" height="57" viewBox="0 0 57 57" fill="none" xmlns="http://www.w3.org/2000/svg">
<path fill-rule="evenodd" clip-rule="evenodd" d="M11.88 0C5.31886 0 0 5.31886 0 11.88V45.12C0 51.6811 5.31886 57 11.88 57H45.12C51.6811 57 57 51.6811 57 45.12V11.88C57 5.31886 51.6811 0 45.12 0H11.88ZM35.4113 21.375H38C39.3181 21.375 40.375 22.4319 40.375 23.75V36.8125C40.375 38.1306 39.3181 39.1875 38 39.1875H19C17.6819 39.1875 16.625 38.1306 16.625 36.8125L16.6369 23.75C16.6369 22.4319 17.6819 21.375 19 21.375H21.5887C21.4581 21.0069 21.375 20.6031 21.375 20.1875C21.375 18.2162 22.9662 16.625 24.9375 16.625C26.1844 16.625 27.265 17.2663 27.9062 18.2162L28.5 19.0238L29.0938 18.2281C29.735 17.2663 30.8156 16.625 32.0625 16.625C34.0337 16.625 35.625 18.2162 35.625 20.1875C35.625 20.6031 35.5419 21.0069 35.4113 21.375ZM33.25 20.1875C33.25 19.5344 32.7156 19 32.0625 19C31.4094 19 30.875 19.5344 30.875 20.1875C30.875 20.8406 31.4094 21.375 32.0625 21.375C32.7156 21.375 33.25 20.8406 33.25 20.1875ZM26.125 20.1875C26.125 19.5344 25.5906 19 24.9375 19C24.2844 19 23.75 19.5344 23.75 20.1875C23.75 20.8406 24.2844 21.375 24.9375 21.375C25.5906 21.375 26.125 20.8406 26.125 20.1875ZM19 34.4375V36.8125H38V34.4375H19ZM19 24.9375V30.875H38V24.9375C38 24.2844 37.4656 23.75 36.8125 23.75H31.9675L33.725 26.1488C34.1169 26.6831 33.9981 27.4312 33.4637 27.8113C32.9412 28.1912 32.1931 28.0725 31.8131 27.55L28.5 23.0375L25.1869 27.55C24.8069 28.0725 24.0588 28.1912 23.5363 27.8113C23.0019 27.4312 22.8831 26.6831 23.275 26.1488L25.0325 23.75H20.1875C19.5344 23.75 19 24.2844 19 24.9375Z" fill="white"/>
</svg>
