<svg width="100" height="95" viewBox="0 0 100 95" fill="none" xmlns="http://www.w3.org/2000/svg">
<path fill-rule="evenodd" clip-rule="evenodd" d="M5.27208 5.27208C0 10.5442 0 19.0294 0 36V59C0 75.9706 0 84.4558 5.27208 89.7279C10.5442 95 19.0294 95 36 95H64C80.9706 95 89.4558 95 94.7279 89.7279C100 84.4558 100 75.9706 100 59V36C100 19.0294 100 10.5442 94.7279 5.27208C89.4558 0 80.9706 0 64 0H36C19.0294 0 10.5442 0 5.27208 5.27208ZM37.5417 37.2502C36.6021 37.2502 35.8333 38.0189 35.8333 38.9585V56.0418H50.3542C51.7721 56.0418 52.9167 57.1864 52.9167 58.6043C52.9167 60.0222 51.7721 61.1668 50.3542 61.1668H31.5625C30.1446 61.1668 29 60.0222 29 58.6043C29 57.1864 30.1446 56.0418 31.5625 56.0418H32.4167V37.2502C32.4167 35.371 33.9542 33.8335 35.8333 33.8335H64.875C65.8146 33.8335 66.5833 34.6022 66.5833 35.5418C66.5833 36.4814 65.8146 37.2502 64.875 37.2502H37.5417ZM58.0417 40.6668H68.2917C69.2312 40.6668 70 41.4356 70 42.3752V59.4585C70 60.3981 69.2312 61.1668 68.2917 61.1668H58.0417C57.1021 61.1668 56.3333 60.3981 56.3333 59.4585V42.3752C56.3333 41.4356 57.1021 40.6668 58.0417 40.6668ZM59.75 56.0418H66.5833V44.0835H59.75V56.0418Z" fill="white"/>
</svg>
