<svg width="100" height="95" viewBox="0 0 100 95" fill="none" xmlns="http://www.w3.org/2000/svg">
<path fill-rule="evenodd" clip-rule="evenodd" d="M5.27208 5.27208C0 10.5442 0 19.0294 0 36V59C0 75.9706 0 84.4558 5.27208 89.7279C10.5442 95 19.0294 95 36 95H64C80.9706 95 89.4558 95 94.7279 89.7279C100 84.4558 100 75.9706 100 59V36C100 19.0294 100 10.5442 94.7279 5.27208C89.4558 0 80.9706 0 64 0H36C19.0294 0 10.5442 0 5.27208 5.27208ZM35.6112 61.5257L33.3221 60.5691C31.5967 59.8516 30.7596 57.8528 31.46 56.1103L35.6112 46.0995V61.5257ZM58.1612 33.7995L66.6346 54.2482C67.3521 55.9737 66.515 57.9724 64.7725 58.6899L52.1992 63.9003C51.7721 64.0712 51.3279 64.1566 50.8837 64.1566C49.5512 64.1395 48.2871 63.3537 47.7575 62.0553L39.2842 41.6066C39.0962 41.1624 39.0108 40.7012 39.0279 40.2399C39.0621 38.9245 39.8479 37.6945 41.1292 37.1649L53.7196 31.9545C54.1637 31.7666 54.625 31.6982 55.0692 31.6982C56.3846 31.7324 57.6317 32.5182 58.1612 33.7995ZM40.7533 40.2399C40.7533 41.1795 41.5221 41.9482 42.4617 41.9482C43.4012 41.9482 44.17 41.1795 44.17 40.2399C44.17 39.3003 43.4012 38.5316 42.4617 38.5316C41.5221 38.5316 40.7533 39.3003 40.7533 40.2399ZM42.4617 64.1566C40.5825 64.1566 39.045 62.6191 39.045 60.7399V49.9091L44.9387 64.1566H42.4617Z" fill="white"/>
</svg>
