<svg width="30" height="30" viewBox="0 0 30 30" fill="none" xmlns="http://www.w3.org/2000/svg">
<g filter="url(#filter0_b_5_49)">
<rect width="29.947" height="29.947" rx="6" fill="url(#paint0_linear_5_49)" fill-opacity="0.9"/>
</g>
<path fill-rule="evenodd" clip-rule="evenodd" d="M18.8498 5.50065C19.4808 5.50065 20.1108 5.58965 20.7098 5.79065C24.4008 6.99065 25.7308 11.0406 24.6198 14.5806C23.9898 16.3896 22.9598 18.0406 21.6108 19.3896C19.6798 21.2596 17.5608 22.9196 15.2798 24.3496L15.0298 24.5006L14.7698 24.3396C12.4808 22.9196 10.3498 21.2596 8.40077 19.3796C7.06077 18.0306 6.02977 16.3896 5.38977 14.5806C4.25977 11.0406 5.58977 6.99065 9.32077 5.76965C9.61077 5.66965 9.90977 5.59965 10.2098 5.56065H10.3298C10.6108 5.51965 10.8898 5.50065 11.1698 5.50065H11.2798C11.9098 5.51965 12.5198 5.62965 13.1108 5.83065H13.1698C13.2098 5.84965 13.2398 5.87065 13.2598 5.88965C13.4808 5.96065 13.6898 6.04065 13.8898 6.15065L14.2698 6.32065C14.3616 6.36962 14.4647 6.44445 14.5537 6.50912C14.6102 6.55009 14.661 6.58699 14.6998 6.61065C14.7161 6.62028 14.7327 6.62996 14.7494 6.63972C14.8351 6.68977 14.9245 6.74191 14.9998 6.79965C16.1108 5.95065 17.4598 5.49065 18.8498 5.50065ZM21.5098 12.7006C21.9198 12.6896 22.2698 12.3606 22.2998 11.9396V11.8206C22.3298 10.4196 21.4808 9.15065 20.1898 8.66065C19.7798 8.51965 19.3298 8.74065 19.1798 9.16065C19.0398 9.58065 19.2598 10.0406 19.6798 10.1896C20.3208 10.4296 20.7498 11.0606 20.7498 11.7596V11.7906C20.7308 12.0196 20.7998 12.2406 20.9398 12.4106C21.0798 12.5806 21.2898 12.6796 21.5098 12.7006Z" fill="#E63D3D"/>
<defs>
<filter id="filter0_b_5_49" x="-20" y="-20" width="69.947" height="69.947" filterUnits="userSpaceOnUse" color-interpolation-filters="sRGB">
<feFlood flood-opacity="0" result="BackgroundImageFix"/>
<feGaussianBlur in="BackgroundImage" stdDeviation="10"/>
<feComposite in2="SourceAlpha" operator="in" result="effect1_backgroundBlur_5_49"/>
<feBlend mode="normal" in="SourceGraphic" in2="effect1_backgroundBlur_5_49" result="shape"/>
</filter>
<linearGradient id="paint0_linear_5_49" x1="0" y1="0" x2="35.9391" y2="11.9974" gradientUnits="userSpaceOnUse">
<stop stop-color="white" stop-opacity="0.8"/>
<stop offset="1" stop-color="white" stop-opacity="0.2"/>
</linearGradient>
</defs>
</svg>
