<svg width="32" height="32" viewBox="0 0 32 32" fill="none" xmlns="http://www.w3.org/2000/svg">
<path d="M5.33333 9.3335C5.33333 8.60016 5.93333 8.00016 6.66667 8.00016H28C28.7333 8.00016 29.3333 7.40016 29.3333 6.66683C29.3333 5.9335 28.7333 5.3335 28 5.3335H5.33333C3.86667 5.3335 2.66667 6.5335 2.66667 8.00016V22.6668H2C0.893333 22.6668 0 23.5602 0 24.6668C0 25.7735 0.893333 26.6668 2 26.6668H16.6667C17.7733 26.6668 18.6667 25.7735 18.6667 24.6668C18.6667 23.5602 17.7733 22.6668 16.6667 22.6668H5.33333V9.3335ZM30.6667 10.6668H22.6667C21.9333 10.6668 21.3333 11.2668 21.3333 12.0002V25.3335C21.3333 26.0668 21.9333 26.6668 22.6667 26.6668H30.6667C31.4 26.6668 32 26.0668 32 25.3335V12.0002C32 11.2668 31.4 10.6668 30.6667 10.6668ZM29.3333 22.6668H24V13.3335H29.3333V22.6668Z" fill="white"/>
</svg>
