<svg width="29" height="29" viewBox="0 0 29 29" fill="none" xmlns="http://www.w3.org/2000/svg">
<path d="M18.6562 13.3125C19.64 13.3125 20.4375 12.515 20.4375 11.5312C20.4375 10.5475 19.64 9.75 18.6562 9.75C17.6725 9.75 16.875 10.5475 16.875 11.5312C16.875 12.515 17.6725 13.3125 18.6562 13.3125Z" fill="white"/>
<path d="M10.3438 13.3125C11.3275 13.3125 12.125 12.515 12.125 11.5312C12.125 10.5475 11.3275 9.75 10.3438 9.75C9.35999 9.75 8.5625 10.5475 8.5625 11.5312C8.5625 12.515 9.35999 13.3125 10.3438 13.3125Z" fill="white"/>
<path d="M14.4881 2.625C7.93312 2.625 2.625 7.945 2.625 14.5C2.625 21.055 7.93312 26.375 14.4881 26.375C21.055 26.375 26.375 21.055 26.375 14.5C26.375 7.945 21.055 2.625 14.4881 2.625ZM14.5 24C9.25125 24 5 19.7488 5 14.5C5 9.25125 9.25125 5 14.5 5C19.7488 5 24 9.25125 24 14.5C24 19.7488 19.7488 24 14.5 24ZM19.7369 16.7444C19.3212 16.4831 18.7631 16.6138 18.5138 17.0294C17.635 18.4188 16.1387 19.25 14.5 19.25C12.8613 19.25 11.365 18.4187 10.4862 17.0175C10.225 16.6019 9.67875 16.4713 9.26313 16.7325C8.8475 16.9938 8.71687 17.54 8.97812 17.9556C10.1894 19.8912 12.2438 21.0312 14.5 21.0312C16.7562 21.0312 18.8106 19.8794 20.0219 17.9675C20.2831 17.5519 20.1525 17.0056 19.7369 16.7444Z" fill="white"/>
</svg>
