<svg width="57" height="57" viewBox="0 0 57 57" fill="none" xmlns="http://www.w3.org/2000/svg">
<path fill-rule="evenodd" clip-rule="evenodd" d="M11.88 0C5.31886 0 0 5.31886 0 11.88V45.12C0 51.6811 5.31886 57 11.88 57H45.12C51.6811 57 57 51.6811 57 45.12V11.88C57 5.31886 51.6811 0 45.12 0H11.88ZM34.4375 25.5312C34.4375 26.515 33.64 27.3125 32.6562 27.3125C31.6725 27.3125 30.875 26.515 30.875 25.5312C30.875 24.5475 31.6725 23.75 32.6562 23.75C33.64 23.75 34.4375 24.5475 34.4375 25.5312ZM24.3438 27.3125C25.3275 27.3125 26.125 26.515 26.125 25.5312C26.125 24.5475 25.3275 23.75 24.3438 23.75C23.36 23.75 22.5625 24.5475 22.5625 25.5312C22.5625 26.515 23.36 27.3125 24.3438 27.3125ZM16.625 28.5C16.625 21.945 21.9331 16.625 28.4881 16.625C35.055 16.625 40.375 21.945 40.375 28.5C40.375 35.055 35.055 40.375 28.4881 40.375C21.9331 40.375 16.625 35.055 16.625 28.5ZM19 28.5C19 33.7487 23.2512 38 28.5 38C33.7487 38 38 33.7487 38 28.5C38 23.2512 33.7487 19 28.5 19C23.2512 19 19 23.2512 19 28.5ZM32.5138 31.0294C32.7631 30.6138 33.3213 30.4831 33.7369 30.7444C34.1525 31.0056 34.2831 31.5519 34.0219 31.9675C32.8106 33.8794 30.7563 35.0312 28.5 35.0312C26.2437 35.0312 24.1894 33.8913 22.9781 31.9556C22.7169 31.54 22.8475 30.9937 23.2631 30.7325C23.6788 30.4713 24.225 30.6019 24.4862 31.0175C25.365 32.4188 26.8612 33.25 28.5 33.25C30.1388 33.25 31.635 32.4188 32.5138 31.0294Z" fill="white"/>
</svg>
