<svg width="57" height="57" viewBox="0 0 57 57" fill="none" xmlns="http://www.w3.org/2000/svg">
<path fill-rule="evenodd" clip-rule="evenodd" d="M11.88 0C5.31886 0 0 5.31886 0 11.88V45.12C0 51.6811 5.31886 57 11.88 57H45.12C51.6811 57 57 51.6811 57 45.12V11.88C57 5.31886 51.6811 0 45.12 0H11.88ZM18.5625 17.375H39.9375C41.2438 17.375 42.3125 18.4438 42.3125 19.75V34C42.3125 35.3063 41.2438 36.375 39.9375 36.375H31.625L33.5606 39.2844C34.095 40.0681 33.525 41.125 32.575 41.125H25.925C24.975 41.125 24.4169 40.0681 24.9394 39.2844L26.875 36.375H18.5625C17.2563 36.375 16.1875 35.3063 16.1875 34V19.75C16.1875 18.4438 17.2563 17.375 18.5625 17.375ZM18.5625 31.625H39.9375V20.9375C39.9375 20.2844 39.4031 19.75 38.75 19.75H19.75C19.0969 19.75 18.5625 20.2844 18.5625 20.9375V31.625Z" fill="white"/>
</svg>
