<svg width="57" height="57" viewBox="0 0 57 57" fill="none" xmlns="http://www.w3.org/2000/svg">
<path fill-rule="evenodd" clip-rule="evenodd" d="M11.88 0C5.31886 0 0 5.31886 0 11.88V45.12C0 51.6811 5.31886 57 11.88 57H45.12C51.6811 57 57 51.6811 57 45.12V11.88C57 5.31886 51.6811 0 45.12 0H11.88ZM37.5506 24.5C37.5506 26.4713 35.9712 28.0625 34 28.0625C32.0288 28.0625 30.4375 26.4713 30.4375 24.5C30.4375 22.5287 32.0288 20.9375 34 20.9375C35.9712 20.9375 37.5506 22.5287 37.5506 24.5ZM28.0506 24.5C28.0506 26.4713 26.4713 28.0625 24.5 28.0625C22.5287 28.0625 20.9375 26.4713 20.9375 24.5C20.9375 22.5287 22.5287 20.9375 24.5 20.9375C26.4713 20.9375 28.0506 22.5287 28.0506 24.5ZM16.1875 34.5938C16.1875 31.8269 21.7331 30.4375 24.5 30.4375C27.2669 30.4375 32.8125 31.8269 32.8125 34.5938V36.375C32.8125 37.0281 32.2781 37.5625 31.625 37.5625H17.375C16.7219 37.5625 16.1875 37.0281 16.1875 36.375V34.5938ZM32.8481 30.4969C33.2637 30.4613 33.6556 30.4375 34 30.4375C36.7669 30.4375 42.3125 31.8269 42.3125 34.5938V36.375C42.3125 37.0281 41.7781 37.5625 41.125 37.5625H34.9738C35.1044 37.1944 35.1875 36.7906 35.1875 36.375V34.5938C35.1875 32.8481 34.2494 31.53 32.8956 30.5444C32.892 30.5408 32.8884 30.5361 32.8845 30.531C32.8755 30.5192 32.8647 30.5052 32.8481 30.4969Z" fill="white"/>
</svg>
