<svg width="28" height="22" viewBox="0 0 28 22" fill="none" xmlns="http://www.w3.org/2000/svg">
<path d="M24.666 0.333496H3.33268C1.85268 0.333496 0.679349 1.52016 0.679349 3.00016L0.666016 19.0002C0.666016 20.4802 1.85268 21.6668 3.33268 21.6668H24.666C26.146 21.6668 27.3327 20.4802 27.3327 19.0002V3.00016C27.3327 1.52016 26.146 0.333496 24.666 0.333496ZM23.3327 19.0002H4.66602C3.93268 19.0002 3.33268 18.4002 3.33268 17.6668V11.0002H24.666V17.6668C24.666 18.4002 24.066 19.0002 23.3327 19.0002ZM24.666 5.66683H3.33268V4.3335C3.33268 3.60016 3.93268 3.00016 4.66602 3.00016H23.3327C24.066 3.00016 24.666 3.60016 24.666 4.3335V5.66683Z" fill="white"/>
</svg>
