<svg width="100" height="95" viewBox="0 0 100 95" fill="none" xmlns="http://www.w3.org/2000/svg">
<path fill-rule="evenodd" clip-rule="evenodd" d="M5.27208 5.27208C0 10.5442 0 19.0294 0 36V59C0 75.9706 0 84.4558 5.27208 89.7279C10.5442 95 19.0294 95 36 95H64C80.9706 95 89.4558 95 94.7279 89.7279C100 84.4558 100 75.9706 100 59V36C100 19.0294 100 10.5442 94.7279 5.27208C89.4558 0 80.9706 0 64 0H36C19.0294 0 10.5442 0 5.27208 5.27208ZM56.7433 50.3187C54.7446 49.4475 52.2846 48.7812 49.5 48.7812C46.7154 48.7812 44.2554 49.4475 42.2567 50.3358C40.4117 51.1387 39.25 52.9837 39.25 54.9996V56.0417C39.25 56.9813 40.0187 57.75 40.9583 57.75H58.0417C58.9813 57.75 59.75 56.9813 59.75 56.0417V54.9825C59.75 52.9837 58.5883 51.1387 56.7433 50.3187ZM39.25 45.7917C39.25 47.6708 37.7125 49.2083 35.8333 49.2083C33.9542 49.2083 32.4167 47.6708 32.4167 45.7917C32.4167 43.9125 33.9542 42.375 35.8333 42.375C37.7125 42.375 39.25 43.9125 39.25 45.7917ZM35.8333 50.9167C36.4996 50.9167 37.1317 50.985 37.7638 51.0875C37.0804 52.2492 36.6875 53.5817 36.6875 54.9996V57.75H30.7083C29.7687 57.75 29 56.9813 29 56.0417V55.0679C29 53.6842 29.82 52.4542 31.0842 51.9075C32.5363 51.2754 34.1421 50.9167 35.8333 50.9167ZM66.5833 45.7917C66.5833 47.6708 65.0458 49.2083 63.1667 49.2083C61.2875 49.2083 59.75 47.6708 59.75 45.7917C59.75 43.9125 61.2875 42.375 63.1667 42.375C65.0458 42.375 66.5833 43.9125 66.5833 45.7917ZM67.9158 51.9075C69.18 52.4542 70 53.6842 70 55.0679V56.0417C70 56.9813 69.2313 57.75 68.2917 57.75H62.3125V54.9996C62.3125 53.5817 61.9196 52.2492 61.2363 51.0875C61.8683 50.985 62.5004 50.9167 63.1667 50.9167C64.8579 50.9167 66.4638 51.2754 67.9158 51.9075ZM54.625 42.375C54.625 39.5392 52.3358 37.25 49.5 37.25C46.6642 37.25 44.375 39.5392 44.375 42.375C44.375 45.2108 46.6642 47.5 49.5 47.5C52.3358 47.5 54.625 45.2108 54.625 42.375Z" fill="white"/>
</svg>
