<svg width="100" height="95" viewBox="0 0 100 95" fill="none" xmlns="http://www.w3.org/2000/svg">
<path fill-rule="evenodd" clip-rule="evenodd" d="M5.27208 5.27208C0 10.5442 0 19.0294 0 36V59C0 75.9706 0 84.4558 5.27208 89.7279C10.5442 95 19.0294 95 36 95H64C80.9706 95 89.4558 95 94.7279 89.7279C100 84.4558 100 75.9706 100 59V36C100 19.0294 100 10.5442 94.7279 5.27208C89.4558 0 80.9706 0 64 0H36C19.0294 0 10.5442 0 5.27208 5.27208ZM62.3638 59.4581L49.5 37.2327L36.6363 59.4581H62.3638ZM36.6363 62.8748C34.0055 62.8748 32.3655 60.0219 33.6809 57.7498L46.5446 35.5244C47.86 33.2523 51.14 33.2523 52.4555 35.5244L65.3192 57.7498C66.6346 60.0219 64.9946 62.8748 62.3638 62.8748H36.6363ZM47.7917 49.2081V45.7915C47.7917 44.8519 48.5605 44.0831 49.5 44.0831C50.4396 44.0831 51.2084 44.8519 51.2084 45.7915V49.2081C51.2084 50.1477 50.4396 50.9165 49.5 50.9165C48.5605 50.9165 47.7917 50.1477 47.7917 49.2081ZM51.2084 54.3331H47.7917V57.7498H51.2084V54.3331Z" fill="white"/>
</svg>
