<svg width="32" height="32" viewBox="0 0 32 32" fill="none" xmlns="http://www.w3.org/2000/svg">
<path d="M26.6674 5.33301H9.10742L19.7741 15.9997H25.3341C26.0674 15.9997 26.6674 16.5997 26.6674 17.333C26.6674 18.0663 26.0674 18.6663 25.3341 18.6663H22.4408L29.0141 25.2397C29.2141 24.8663 29.3341 24.453 29.3341 23.9997V7.99967C29.3341 6.53301 28.1341 5.33301 26.6674 5.33301Z" fill="white"/>
<path d="M26.6667 26.6666L18.6667 18.6666L16.3867 16.3866L16 15.9999L4.21336 4.21324C3.69336 3.69324 2.85336 3.69324 2.33336 4.21324C1.81336 4.73324 1.81336 5.57324 2.33336 6.09324L2.98669 6.74658C2.78669 7.13324 2.66669 7.54658 2.66669 7.99991V23.9999C2.66669 25.4666 3.86669 26.6666 5.33336 26.6666H22.8934L25.8934 29.6666C26.4134 30.1866 27.2534 30.1866 27.7734 29.6666C28.2934 29.1466 28.2934 28.3066 27.7734 27.7866L26.6667 26.6666ZM10.6667 17.3332C10.6667 18.0666 10.0667 18.6666 9.33336 18.6666H6.66669C5.93336 18.6666 5.33336 18.0666 5.33336 17.3332C5.33336 16.5999 5.93336 15.9999 6.66669 15.9999H9.33336C10.0667 15.9999 10.6667 16.5999 10.6667 17.3332ZM18.6667 22.6666C18.6667 23.3999 18.0667 23.9999 17.3334 23.9999H6.66669C5.93336 23.9999 5.33336 23.3999 5.33336 22.6666C5.33336 21.9332 5.93336 21.3332 6.66669 21.3332H17.3334C17.44 21.3332 17.52 21.3732 17.6134 21.3866L18.6 22.3732C18.6267 22.4799 18.6667 22.5599 18.6667 22.6666Z" fill="white"/>
</svg>
