<svg width="27" height="25" viewBox="0 0 27 25" fill="none" xmlns="http://www.w3.org/2000/svg">
<path d="M23.9375 0.375H2.5625C1.25625 0.375 0.1875 1.44375 0.1875 2.75V17C0.1875 18.3062 1.25625 19.375 2.5625 19.375H10.875L8.93937 22.2844C8.41687 23.0681 8.975 24.125 9.925 24.125H16.575C17.525 24.125 18.095 23.0681 17.5606 22.2844L15.625 19.375H23.9375C25.2437 19.375 26.3125 18.3062 26.3125 17V2.75C26.3125 1.44375 25.2437 0.375 23.9375 0.375ZM23.9375 14.625H2.5625V3.9375C2.5625 3.28437 3.09687 2.75 3.75 2.75H22.75C23.4031 2.75 23.9375 3.28437 23.9375 3.9375V14.625Z" fill="white"/>
</svg>
