<svg width="27" height="18" viewBox="0 0 27 18" fill="none" xmlns="http://www.w3.org/2000/svg">
<path d="M18 8.0625C19.9713 8.0625 21.5506 6.47125 21.5506 4.5C21.5506 2.52875 19.9713 0.9375 18 0.9375C16.0288 0.9375 14.4375 2.52875 14.4375 4.5C14.4375 6.47125 16.0288 8.0625 18 8.0625ZM8.5 8.0625C10.4712 8.0625 12.0506 6.47125 12.0506 4.5C12.0506 2.52875 10.4712 0.9375 8.5 0.9375C6.52875 0.9375 4.9375 2.52875 4.9375 4.5C4.9375 6.47125 6.52875 8.0625 8.5 8.0625ZM8.5 10.4375C5.73313 10.4375 0.1875 11.8269 0.1875 14.5938V16.375C0.1875 17.0281 0.721875 17.5625 1.375 17.5625H15.625C16.2781 17.5625 16.8125 17.0281 16.8125 16.375V14.5938C16.8125 11.8269 11.2669 10.4375 8.5 10.4375ZM18 10.4375C17.6556 10.4375 17.2638 10.4613 16.8481 10.4969C16.8719 10.5087 16.8837 10.5325 16.8956 10.5444C18.2494 11.53 19.1875 12.8481 19.1875 14.5938V16.375C19.1875 16.7906 19.1044 17.1944 18.9737 17.5625H25.125C25.7781 17.5625 26.3125 17.0281 26.3125 16.375V14.5938C26.3125 11.8269 20.7669 10.4375 18 10.4375Z" fill="white"/>
</svg>
